<svg width="52" height="52" viewBox="0 0 52 52" fill="none" xmlns="http://www.w3.org/2000/svg">
<path fill-rule="evenodd" clip-rule="evenodd" d="M9.3275 26.8125L15.73 20.41C15.9695 20.1869 16.1616 19.9178 16.2948 19.6188C16.428 19.3198 16.4996 18.997 16.5054 18.6697C16.5112 18.3424 16.451 18.0173 16.3284 17.7138C16.2058 17.4103 16.0233 17.1346 15.7919 16.9031C15.5604 16.6717 15.2847 16.4892 14.9812 16.3666C14.6777 16.244 14.3526 16.1838 14.0253 16.1896C13.698 16.1954 13.3752 16.267 13.0763 16.4002C12.7773 16.5334 12.5082 16.7255 12.285 16.965L1.7225 27.5275L0 29.25L1.7225 30.9725L12.285 41.535C12.7471 41.9656 13.3582 42.2 13.9897 42.1888C14.6212 42.1777 15.2237 41.9219 15.6703 41.4753C16.1169 41.0287 16.3727 40.4262 16.3838 39.7947C16.395 39.1632 16.1606 38.5521 15.73 38.09L9.3275 31.6875L41.4375 31.6875C44.2388 31.6875 46.9255 30.5747 48.9063 28.5938C50.8872 26.613 52 23.9264 52 21.125C52 18.3237 50.8872 15.6371 48.9063 13.6562C46.9255 11.6753 44.2388 10.5625 41.4375 10.5625H34.9375C34.291 10.5625 33.671 10.8193 33.2139 11.2764C32.7568 11.7336 32.5 12.3535 32.5 13C32.5 13.6465 32.7568 14.2665 33.2139 14.7236C33.671 15.1807 34.291 15.4375 34.9375 15.4375H41.4375C42.9459 15.4375 44.3926 16.0367 45.4592 17.1033C46.5258 18.17 47.125 19.6166 47.125 21.125C47.125 22.6334 46.5258 24.0801 45.4592 25.1467C44.3926 26.2133 42.9459 26.8125 41.4375 26.8125L9.3275 26.8125Z" fill="#5D5D5D"/>
</svg>
