<svg width="29" height="29" viewBox="0 0 29 29" fill="none" xmlns="http://www.w3.org/2000/svg">
<path d="M27.0088 22.2019L19.2952 14.4999L27.0073 6.79806L27.0076 6.79782C27.3216 6.48404 27.5707 6.11149 27.7406 5.70142C27.9105 5.29135 27.998 4.85182 27.9979 4.40794C27.9977 3.96406 27.9101 3.52457 27.74 3.11457C27.5698 2.70458 27.3206 2.33215 27.0064 2.01852C26.6923 1.70488 26.3194 1.45619 25.9092 1.28657C25.499 1.11695 25.0594 1.02972 24.6154 1.02982C24.1715 1.02993 23.7319 1.11737 23.3218 1.28718C22.9117 1.45697 22.539 1.70581 22.225 2.01954C22.225 2.01958 22.2249 2.01961 22.2249 2.01964L14.5142 9.72303L6.80759 2.02524C6.49713 1.7057 6.12653 1.45066 5.71711 1.27477C5.30473 1.09759 4.8612 1.00425 4.41238 1.00014C3.96356 0.996036 3.51839 1.08125 3.10283 1.25085C2.68727 1.42045 2.30962 1.67104 1.99193 1.98807C1.67423 2.3051 1.42287 2.68222 1.25256 3.09746C1.08225 3.51269 0.996423 3.95769 1.00011 4.40647C1.00381 4.85525 1.09694 5.29878 1.27405 5.71116C1.44996 6.12073 1.7052 6.49141 2.02499 6.80188L9.73341 14.5001L2.02656 22.1981C1.70678 22.5086 1.45155 22.8793 1.27564 23.2888C1.09853 23.7012 1.00539 24.1447 1.0017 24.5935C0.998011 25.0423 1.08384 25.4873 1.25415 25.9025C1.42446 26.3178 1.67582 26.6949 1.99351 27.0119C2.3112 27.329 2.68886 27.5796 3.10442 27.7492C3.51998 27.9187 3.96515 28.004 4.41396 27.9999C4.86278 27.9958 5.30632 27.9024 5.7187 27.7252C6.12813 27.5493 6.49874 27.2943 6.8092 26.9747L14.5142 19.2785L22.2267 26.9821C22.861 27.6158 23.7212 27.9715 24.6178 27.9715C25.5145 27.9715 26.3746 27.6158 27.009 26.9821C27.6434 26.3484 28 25.4887 28 24.5921C28 23.6954 27.6434 22.8357 27.009 22.202L27.0088 22.2019Z" fill="#FAFAFA" stroke="#FAFAFA" stroke-width="2"/>
</svg>
