<svg width="53" height="49" viewBox="0 0 53 49" fill="none" xmlns="http://www.w3.org/2000/svg">
<path d="M43.7727 29.4C44.8773 29.4 45.7727 30.2954 45.7727 31.4V34.75C45.7727 35.8546 46.6682 36.75 47.7727 36.75H51C52.1046 36.75 53 37.6454 53 38.75V39.65C53 40.7546 52.1046 41.65 51 41.65H47.7727C46.6682 41.65 45.7727 42.5454 45.7727 43.65V47C45.7727 48.1046 44.8773 49 43.7727 49H42.9545C41.85 49 40.9545 48.1046 40.9545 47V43.65C40.9545 42.5454 40.0591 41.65 38.9545 41.65H35.7273C34.6227 41.65 33.7273 40.7546 33.7273 39.65V38.75C33.7273 37.6454 34.6227 36.75 35.7273 36.75H38.9545C40.0591 36.75 40.9545 35.8546 40.9545 34.75V31.4C40.9545 30.2954 41.85 29.4 42.9545 29.4H43.7727ZM45.792 0C47.1122 0 48.1818 1.09025 48.1818 2.43285V22.4952C48.1818 23.8796 46.7983 24.8499 45.4285 24.6496C45.4051 24.6462 45.3817 24.6428 45.3582 24.6395C44.2641 24.4851 43.3636 23.6039 43.3636 22.4989V6.9C43.3636 5.79543 42.4682 4.9 41.3636 4.9H6.81832C5.7137 4.9 4.81824 5.79552 4.81832 6.90014L4.82025 34.3136C4.82037 36.1035 6.99149 36.992 8.24639 35.7156L27.2059 16.4321C27.6204 16.01 28.1722 15.7561 28.7576 15.7182C29.3431 15.6803 29.9221 15.861 30.3859 16.2264L30.6123 16.4346L36.8543 22.7915C37.9034 23.8599 37.4497 25.696 36.1573 26.452C35.4169 26.8851 34.714 27.3851 34.0572 27.9471C32.563 29.2256 31.3389 30.7986 30.4587 32.5713C29.5785 34.344 29.0605 36.2795 28.9357 38.2614C28.8701 39.3034 28.914 40.3469 29.065 41.3744C29.265 42.7357 28.2961 44.1023 26.9202 44.1022L2.38982 44.1C1.75578 44.0993 1.14792 43.8427 0.699816 43.3866C0.251707 42.9304 -3.21506e-07 42.312 0 41.6672V2.43285C0.00440874 1.78943 0.257532 1.17359 0.70469 0.718383C1.15185 0.263174 1.75714 0.00513189 2.38982 0H45.792ZM14.4545 9.8C15.7324 9.8 16.9579 10.3162 17.8615 11.2352C18.7651 12.1541 19.2727 13.4004 19.2727 14.7C19.2727 15.9996 18.7651 17.2459 17.8615 18.1648C16.9579 19.0838 15.7324 19.6 14.4545 19.6C13.1767 19.6 11.9512 19.0838 11.0476 18.1648C10.144 17.2459 9.63636 15.9996 9.63636 14.7C9.63636 13.4004 10.144 12.1541 11.0476 11.2352C11.9512 10.3162 13.1767 9.8 14.4545 9.8Z" fill="#5D5D5D"/>
</svg>
