<svg width="44" height="44" viewBox="0 0 44 44" fill="none" xmlns="http://www.w3.org/2000/svg">
<circle cx="22" cy="22" r="22" fill="#F75959"/>
<path d="M33.3 9H11.7C10.2015 9 9 10.2361 9 11.7778V31.2222C9 32.7639 10.2015 34 11.7 34H33.3C34.7985 34 36 32.7639 36 31.2222V11.7778C36 10.2361 34.7985 9 33.3 9ZM13.05 14.5556H19.8V22.8889H13.05V14.5556ZM31.95 28.4444H13.05V25.6667H31.95V28.4444ZM31.95 22.8889H22.5V20.1111H31.95V22.8889ZM31.95 17.3333H22.5V14.5556H31.95V17.3333Z" fill="#FAFAFA"/>
<circle cx="28.5" cy="25.5" r="7.5" fill="white"/>
<path fill-rule="evenodd" clip-rule="evenodd" d="M28.5 32C29.3536 32 30.1988 31.8319 30.9874 31.5052C31.7761 31.1786 32.4926 30.6998 33.0962 30.0962C33.6998 29.4926 34.1786 28.7761 34.5052 27.9874C34.8319 27.1988 35 26.3536 35 25.5C35 24.6464 34.8319 23.8012 34.5052 23.0126C34.1786 22.2239 33.6998 21.5074 33.0962 20.9038C32.4926 20.3002 31.7761 19.8214 30.9874 19.4948C30.1988 19.1681 29.3536 19 28.5 19C26.7761 19 25.1228 19.6848 23.9038 20.9038C22.6848 22.1228 22 23.7761 22 25.5C22 27.2239 22.6848 28.8772 23.9038 30.0962C25.1228 31.3152 26.7761 32 28.5 32ZM28.3324 28.1289L31.9436 23.7956L30.8342 22.8711L27.7287 26.5971L26.1217 24.9894L25.1005 26.0106L27.2672 28.1773L27.8262 28.7363L28.3324 28.1289Z" fill="#F75959"/>
</svg>
