<svg width="31" height="36" viewBox="0 0 31 36" fill="none" xmlns="http://www.w3.org/2000/svg">
<path fill-rule="evenodd" clip-rule="evenodd" d="M15.5 0V11.7C15.5 12.4161 15.8062 13.1028 16.3512 13.6092C16.8962 14.1155 17.6355 14.4 18.4062 14.4H31V32.4C31 33.3548 30.5917 34.2705 29.865 34.9456C29.1383 35.6207 28.1527 36 27.125 36H3.875C2.84729 36 1.86166 35.6207 1.13496 34.9456C0.408258 34.2705 0 33.3548 0 32.4V3.6C0 2.64522 0.408258 1.72955 1.13496 1.05442C1.86166 0.379284 2.84729 0 3.875 0H15.5ZM21.3125 23.4H9.6875C9.17364 23.4 8.68083 23.5896 8.31748 23.9272C7.95413 24.2648 7.75 24.7226 7.75 25.2C7.75 25.6774 7.95413 26.1352 8.31748 26.4728C8.68083 26.8104 9.17364 27 9.6875 27H21.3125C21.8264 27 22.3192 26.8104 22.6825 26.4728C23.0459 26.1352 23.25 25.6774 23.25 25.2C23.25 24.7226 23.0459 24.2648 22.6825 23.9272C22.3192 23.5896 21.8264 23.4 21.3125 23.4ZM11.625 16.2H9.6875C9.17364 16.2 8.68083 16.3896 8.31748 16.7272C7.95413 17.0648 7.75 17.5226 7.75 18C7.75 18.4774 7.95413 18.9352 8.31748 19.2728C8.68083 19.6104 9.17364 19.8 9.6875 19.8H11.625C12.1389 19.8 12.6317 19.6104 12.995 19.2728C13.3584 18.9352 13.5625 18.4774 13.5625 18C13.5625 17.5226 13.3584 17.0648 12.995 16.7272C12.6317 16.3896 12.1389 16.2 11.625 16.2ZM19.375 0.0774C20.1091 0.22204 20.7822 0.561585 21.3125 1.0548L29.8646 9C30.3955 9.4927 30.761 10.118 30.9167 10.8H19.375V0.0774Z" fill="#5D5D5D"/>
</svg>
