<svg width="28" height="28" viewBox="0 0 28 28" fill="none" xmlns="http://www.w3.org/2000/svg">
<path d="M26.0368 21.3655L18.66 13.9999L26.0353 6.63444L26.0355 6.6342C26.3407 6.32926 26.5828 5.9672 26.7479 5.56868C26.9131 5.17015 26.998 4.743 26.9979 4.31161C26.9978 3.88023 26.9127 3.45311 26.7473 3.05466C26.582 2.65621 26.3397 2.29427 26.0344 1.98947C25.7291 1.68467 25.3668 1.44298 24.9681 1.27814C24.5695 1.1133 24.1422 1.02853 23.7108 1.02863C23.2794 1.02873 22.8522 1.11371 22.4536 1.27873C22.055 1.44374 21.6929 1.68557 21.3877 1.99047V1.99046L21.3876 1.99056L14.0136 9.35757L6.64375 1.99613C6.34208 1.6857 5.982 1.43792 5.58422 1.26702C5.18346 1.09484 4.75242 1.00413 4.31625 1.00014C3.88008 0.996148 3.44745 1.07896 3.0436 1.24378C2.63976 1.4086 2.27274 1.65213 1.96399 1.96023C1.65525 2.26834 1.41096 2.63484 1.24545 3.03838C1.07994 3.44192 0.996524 3.87439 1.00011 4.31054C1.0037 4.74669 1.09421 5.17773 1.26634 5.5785C1.43726 5.97646 1.68524 6.33662 1.99592 6.63831L9.36747 14.0001L1.99736 21.3618C1.68672 21.6634 1.43877 22.0236 1.26786 22.4215C1.09574 22.8223 1.00522 23.2533 1.00163 23.6895C0.998048 24.1256 1.08146 24.5581 1.24697 24.9616C1.41249 25.3652 1.65677 25.7317 1.96552 26.0398C2.27426 26.3479 2.64128 26.5914 3.04513 26.7562C3.44898 26.921 3.8816 27.0039 4.31777 26.9999C4.75394 26.9959 5.18498 26.9052 5.58574 26.733C5.98353 26.5621 6.34363 26.3143 6.6453 26.0039L14.0137 18.6439L21.3893 26.0111C22.0058 26.6269 22.8417 26.9727 23.7131 26.9727C24.5845 26.9727 25.4204 26.6269 26.0369 26.0111C26.6534 25.3953 27 24.5598 27 23.6884C27 22.817 26.6534 21.9815 26.0369 21.3656L26.0368 21.3655Z" fill="#FAFAFA" stroke="#FAFAFA" stroke-width="2"/>
</svg>
