<svg width="21" height="16" viewBox="0 0 21 16" fill="none" xmlns="http://www.w3.org/2000/svg">
<path fill-rule="evenodd" clip-rule="evenodd" d="M18.6265 2.36967C18.8657 2.60618 19 2.92691 19 3.26132C19 3.59574 18.8657 3.91647 18.6265 4.15297L9.06474 13.6059C8.93838 13.7308 8.78836 13.8299 8.62324 13.8976C8.45813 13.9652 8.28116 14 8.10244 14C7.92372 14 7.74675 13.9652 7.58163 13.8976C7.41652 13.8299 7.2665 13.7308 7.14014 13.6059L2.38945 8.91011C2.26761 8.79377 2.17043 8.65461 2.10357 8.50074C2.03671 8.34687 2.00152 8.18138 2.00005 8.01393C1.99858 7.84647 2.03085 7.6804 2.095 7.5254C2.15914 7.37041 2.25386 7.2296 2.37364 7.11118C2.49342 6.99277 2.63585 6.89912 2.79263 6.83571C2.94941 6.7723 3.11739 6.74039 3.28678 6.74184C3.45617 6.7433 3.62356 6.77809 3.7792 6.84419C3.93484 6.91028 4.07561 7.00636 4.19329 7.12682L8.10201 10.991L16.8218 2.36967C16.9403 2.25248 17.0809 2.15951 17.2358 2.09608C17.3906 2.03265 17.5566 2 17.7242 2C17.8917 2 18.0577 2.03265 18.2125 2.09608C18.3674 2.15951 18.508 2.25248 18.6265 2.36967Z" fill="white" stroke="#FAFAFA" stroke-width="4"/>
</svg>
