<svg width="50" height="50" viewBox="0 0 50 50" fill="none" xmlns="http://www.w3.org/2000/svg">
<path fill-rule="evenodd" clip-rule="evenodd" d="M25.0285 31.7302L41.8667 48.5492C42.7602 49.4417 43.972 49.9431 45.2356 49.9431C46.4992 49.9431 47.7111 49.4417 48.6045 48.5492C49.498 47.6567 50 46.4463 50 45.1841C50 43.922 49.498 42.7115 48.6045 41.819L31.76 25L48.6014 8.18096C49.0436 7.73905 49.3943 7.21447 49.6335 6.63717C49.8728 6.05987 49.9958 5.44115 49.9957 4.81634C49.9956 4.19154 49.8722 3.57288 49.6327 2.99569C49.3932 2.4185 49.0422 1.89409 48.5998 1.45239C48.1574 1.01069 47.6322 0.660355 47.0542 0.421388C46.4763 0.182421 45.8568 0.0595024 45.2313 0.0596496C44.6058 0.0597969 43.9864 0.183007 43.4086 0.422245C42.8308 0.661484 42.3057 1.01207 41.8635 1.45398L25.0285 18.273L8.19024 1.45398C7.75109 0.999391 7.22571 0.636718 6.64474 0.387117C6.06378 0.137516 5.43886 0.00598447 4.80646 0.000199506C4.17406 -0.00558546 3.54683 0.114491 2.96139 0.353422C2.37594 0.592353 1.844 0.945355 1.39659 1.39183C0.949187 1.8383 0.595282 2.36931 0.355526 2.95386C0.11577 3.53841 -0.00503452 4.16481 0.00016072 4.7965C0.00535596 5.42818 0.136446 6.05251 0.385785 6.63305C0.635123 7.21359 0.997714 7.73871 1.4524 8.17779L18.297 25L1.45558 41.8222C1.00089 42.2613 0.638299 42.7864 0.388961 43.367C0.139623 43.9475 0.00853096 44.5718 0.00333572 45.2035C-0.00185952 45.8352 0.118945 46.4616 0.358701 47.0461C0.598457 47.6307 0.952362 48.1617 1.39977 48.6082C1.84717 49.0546 2.37912 49.4076 2.96456 49.6466C3.55001 49.8855 4.17723 50.0056 4.80963 49.9998C5.44204 49.994 6.06695 49.8625 6.64792 49.6129C7.22889 49.3633 7.75427 49.0006 8.19341 48.546L25.0285 31.7302Z" fill="#5D5D5D"/>
</svg>
