<svg width="44" height="44" viewBox="0 0 44 44" fill="none" xmlns="http://www.w3.org/2000/svg">
<circle cx="22" cy="22" r="22" fill="#F75959"/>
<path d="M33.3 9H11.7C10.2015 9 9 10.2361 9 11.7778V31.2222C9 32.7639 10.2015 34 11.7 34H33.3C34.7985 34 36 32.7639 36 31.2222V11.7778C36 10.2361 34.7985 9 33.3 9ZM13.05 14.5556H19.8V22.8889H13.05V14.5556ZM31.95 28.4444H13.05V25.6667H31.95V28.4444ZM31.95 22.8889H22.5V20.1111H31.95V22.8889ZM31.95 17.3333H22.5V14.5556H31.95V17.3333Z" fill="#FAFAFA"/>
<circle cx="28.5" cy="25.5" r="7.5" fill="white"/>
<circle cx="28.5" cy="25.5" r="6.5" fill="#F75959"/>
<path d="M33 29.4557L32.4557 30L31.71 29.2586H25.6671C25.4398 29.2586 25.2218 29.1683 25.0611 29.0075C24.9003 28.8468 24.81 28.6288 24.81 28.4014V22.3586L24 21.5443L24.5486 21L32.3957 28.8471V28.8514L33 29.4557ZM32.5243 27.8871L26.1814 21.5443H29.9529L32.5243 24.1157V27.8871ZM31.8814 24.5443L29.5243 22.1871V24.5443H31.8814Z" fill="white"/>
</svg>
