<svg width="31" height="29" viewBox="0 0 31 29" fill="none" xmlns="http://www.w3.org/2000/svg">
<path d="M14.0389 0.60507C14.4265 0.217644 14.952 0 15.5 0C16.048 0 16.5735 0.217644 16.9611 0.60507L21.6998 5.34376V2.67166C21.6998 2.39761 21.8086 2.13479 22.0024 1.94101C22.1962 1.74723 22.459 1.63836 22.7331 1.63836H24.7997C25.0737 1.63836 25.3365 1.74723 25.5303 1.94101C25.7241 2.13479 25.8329 2.39761 25.8329 2.67166V9.47694L30.6977 14.3396C30.8915 14.5337 31.0002 14.7967 31 15.0709C30.9998 15.3451 30.8907 15.608 30.6967 15.8017C30.5026 15.9955 30.2396 16.1042 29.9654 16.104C29.6912 16.1038 29.4283 15.9947 29.2346 15.8007L15.5 2.06615L1.76544 15.8007C1.57169 15.9947 1.3088 16.1038 1.0346 16.104C0.760401 16.1042 0.497355 15.9955 0.30333 15.8017C0.109305 15.608 0.000194039 15.3451 2.58553e-07 15.0709C-0.000193522 14.7967 0.108546 14.5337 0.302297 14.3396L14.0389 0.60507Z" fill="#FAFAFA"/>
<path d="M27.8987 16.7101L15.4991 4.31055L3.09961 16.7101V25.4042C3.09961 26.2264 3.4262 27.0148 4.00754 27.5962C4.58889 28.1775 5.37735 28.5041 6.19949 28.5041H24.7988C25.6209 28.5041 26.4094 28.1775 26.9907 27.5962C27.5721 27.0148 27.8987 26.2264 27.8987 25.4042V16.7101ZM15.4991 15.0341C18.938 11.5767 27.537 17.6256 15.4991 25.4042C3.46126 17.6256 12.0603 11.5767 15.4991 15.0341Z" fill="#FAFAFA"/>
</svg>
