<svg width="21" height="22" viewBox="0 0 21 22" fill="none" xmlns="http://www.w3.org/2000/svg">
<path d="M13.4816 0H1.03704C0.762002 0 0.498226 0.109073 0.303743 0.303223C0.10926 0.497374 0 0.760698 0 1.03527V19.6701C0 19.9447 0.10926 20.208 0.303743 20.4021C0.498226 20.5963 0.762002 20.7054 1.03704 20.7054H9.59784C8.68244 19.3942 8.2269 17.8177 8.30213 16.2212C8.37735 14.6248 8.97912 13.0979 10.0138 11.8783C11.0484 10.6587 12.4579 9.81472 14.0229 9.47776C15.5879 9.1408 17.2205 9.32974 18.6668 10.0152V5.17634L13.4816 0ZM11.1855 13.797C11.226 13.0444 11.8078 12.4315 12.5586 12.3518L13.4608 12.2565C13.5683 12.2449 13.6695 12.2 13.7502 12.1282L14.4253 11.5225C14.697 11.2781 15.0472 11.1386 15.4128 11.1291C15.7784 11.1196 16.1354 11.2408 16.4195 11.4708L17.1268 12.0402C17.2097 12.1075 17.3134 12.1468 17.4213 12.153L18.3277 12.2017C19.0816 12.242 19.6955 12.8228 19.7754 13.5724L19.8708 14.4731C19.8824 14.5804 19.9274 14.6814 19.9994 14.7619L20.6061 15.4359C21.1111 15.997 21.1329 16.8407 20.6579 17.4267L20.0875 18.1327C20.0202 18.2166 19.9807 18.3194 19.9745 18.4267L19.9258 19.3316C19.907 19.6963 19.7583 20.0423 19.5066 20.3073C19.2548 20.5723 18.9165 20.7388 18.5527 20.7768L17.6505 20.872C17.543 20.8837 17.4418 20.9286 17.3611 21.0004L16.686 21.6061C16.4143 21.8505 16.0641 21.99 15.6985 21.9995C15.3329 22.009 14.9759 21.8878 14.6918 21.6578L13.9845 21.0884C13.9005 21.0212 13.7975 20.9817 13.69 20.9756L12.7836 20.9269C12.4183 20.9082 12.0717 20.7598 11.8062 20.5085C11.5408 20.2571 11.374 19.9194 11.3359 19.5562L11.2405 18.6555C11.2289 18.5482 11.1839 18.4472 11.1119 18.3667L10.5052 17.6927C10.2604 17.4215 10.1207 17.0719 10.1111 16.7069C10.1016 16.3419 10.223 15.9855 10.4534 15.7019L11.0238 14.9959C11.0911 14.912 11.1306 14.8092 11.1368 14.7018L11.1855 13.797ZM18.6979 15.5601L17.5986 14.4627L15.0371 17.0198L13.5127 15.498L12.4134 16.5954L14.4875 18.6659L15.0371 19.2146L15.5868 18.6659L18.6979 15.5601Z" fill="#FAFAFA"/>
</svg>
