<svg width="35" height="35" viewBox="0 0 35 35" fill="none" xmlns="http://www.w3.org/2000/svg">
<path d="M2.11952 23.2709L0.0517456 32.195C-0.0195858 32.5212 -0.0171405 32.8593 0.0589026 33.1844C0.134946 33.5096 0.282666 33.8136 0.491272 34.0744C0.699878 34.3352 0.9641 34.546 1.26464 34.6916C1.56517 34.8372 1.89443 34.9137 2.22836 34.9158C2.38389 34.9326 2.54079 34.9326 2.69633 34.9158L11.6748 32.848L28.9136 15.6745L19.293 6.07568L2.11952 23.2709Z" fill="#FAFAFA"/>
<path d="M34.3333 7.0768L27.9123 0.655799C27.4901 0.235784 26.9189 0 26.3234 0C25.7279 0 25.1566 0.235784 24.7344 0.655799L21.1648 4.22544L30.7745 13.8352L34.3442 10.2655C34.5531 10.0556 34.7185 9.80649 34.831 9.53252C34.9436 9.25855 35.001 8.96508 35 8.66891C34.9989 8.37273 34.9395 8.07966 34.8252 7.80647C34.7108 7.53328 34.5436 7.28532 34.3333 7.0768Z" fill="#FAFAFA"/>
</svg>
