<svg width="60" height="52" viewBox="0 0 60 52" fill="none" xmlns="http://www.w3.org/2000/svg">
<path d="M60 20.5631C60 22.0615 59.5601 23.5262 58.736 24.772C57.9119 26.0179 56.7406 26.9889 55.3701 27.5623C53.9997 28.1357 52.4917 28.2857 51.0368 27.9934C49.582 27.7011 48.2456 26.9795 47.1967 25.92C46.1478 24.8605 45.4335 23.5106 45.1441 22.0411C44.8547 20.5715 45.0032 19.0482 45.5709 17.6639C46.1386 16.2796 47.0999 15.0964 48.3332 14.264C49.5666 13.4315 51.0166 12.9872 52.5 12.9872C54.4891 12.9872 56.3968 13.7854 57.8033 15.2061C59.2098 16.6269 60 18.5538 60 20.5631ZM15 20.5631C15 19.0647 14.5601 17.6 13.736 16.3542C12.9119 15.1083 11.7406 14.1373 10.3701 13.5639C8.99968 12.9905 7.49168 12.8405 6.03683 13.1328C4.58197 13.4251 3.2456 14.1466 2.1967 15.2061C1.14781 16.2656 0.433503 17.6155 0.144114 19.0851C-0.145275 20.5547 0.00324962 22.0779 0.570907 23.4623C1.13856 24.8466 2.09986 26.0297 3.33323 26.8622C4.56659 27.6946 6.01664 28.139 7.5 28.139C9.48913 28.139 11.3968 27.3408 12.8033 25.92C14.2098 24.4993 15 22.5723 15 20.5631ZM20.3571 15.1518C21.8405 15.1518 23.2906 14.7074 24.5239 13.875C25.7573 13.0425 26.7186 11.8593 27.2862 10.475C27.8539 9.09073 28.0024 7.56747 27.713 6.0979C27.4236 4.62832 26.7093 3.27843 25.6604 2.21893C24.6116 1.15942 23.2752 0.437888 21.8203 0.145572C20.3655 -0.146745 18.8575 0.00328249 17.487 0.576682C16.1166 1.15008 14.9452 2.1211 14.1211 3.36695C13.297 4.61279 12.8571 6.07751 12.8571 7.57588C12.8571 9.58512 13.6473 11.5121 15.0538 12.9328C16.4604 14.3536 18.368 15.1518 20.3571 15.1518ZM39.6429 15.1518C41.1262 15.1518 42.5763 14.7074 43.8096 13.875C45.043 13.0425 46.0043 11.8593 46.572 10.475C47.1396 9.09073 47.2881 7.56747 46.9987 6.0979C46.7094 4.62832 45.9951 3.27843 44.9462 2.21893C43.8973 1.15942 42.5609 0.437888 41.106 0.145572C39.6512 -0.146745 38.1432 0.00328249 36.7727 0.576682C35.4023 1.15008 34.2309 2.1211 33.4068 3.36695C32.5827 4.61279 32.1429 6.07751 32.1429 7.57588C32.1429 9.58512 32.933 11.5121 34.3396 12.9328C35.7461 14.3536 37.6537 15.1518 39.6429 15.1518ZM45.8357 31.6185C44.7473 31.0119 43.7879 30.1945 43.0125 29.213C42.2371 28.2316 41.661 27.1053 41.317 25.8987C40.6045 23.4237 39.116 21.2491 37.0753 19.7017C35.0345 18.1544 32.5517 17.3178 30 17.3178C27.4483 17.3178 24.9655 18.1544 22.9247 19.7017C20.884 21.2491 19.3955 23.4237 18.683 25.8987C17.9948 28.3266 16.3813 30.3797 14.1964 31.6076C12.1005 32.7532 10.4425 34.5719 9.48463 36.7761C8.52677 38.9803 8.32374 41.4442 8.90765 43.778C9.49157 46.1118 10.8291 48.1824 12.7087 49.6622C14.5883 51.1421 16.9026 51.9467 19.2857 51.9489C20.7138 51.9529 22.1279 51.6648 23.4429 51.102C27.6351 49.3559 32.3408 49.3559 36.533 51.102C39.0722 52.2175 41.9403 52.2967 44.536 51.3231C47.1317 50.3494 49.2535 48.3985 50.4565 45.8793C51.6595 43.3602 51.8502 40.4684 50.9888 37.8103C50.1274 35.1521 48.2806 32.9341 45.8357 31.6212V31.6185Z" fill="#5D5D5D"/>
</svg>
