<svg width="38" height="37" viewBox="0 0 38 37" fill="none" xmlns="http://www.w3.org/2000/svg">
<path d="M16.5 0.5H4C3.13967 0.5 2.36511 0.978863 1.82537 1.73451C1.28713 2.48803 1 3.48381 1 4.5C1 5.51619 1.28713 6.51197 1.82537 7.26549C2.36511 8.02114 3.13967 8.5 4 8.5H16.5C17.3603 8.5 18.1349 8.02114 18.6746 7.26549C19.2129 6.51197 19.5 5.51619 19.5 4.5C19.5 3.48381 19.2129 2.48803 18.6746 1.73451C18.1349 0.978863 17.3603 0.5 16.5 0.5ZM34 28.5H21.5C20.6397 28.5 19.8651 28.9789 19.3254 29.7345C18.7871 30.488 18.5 31.4838 18.5 32.5C18.5 33.5162 18.7871 34.512 19.3254 35.2655C19.8651 36.0211 20.6397 36.5 21.5 36.5H34C34.8603 36.5 35.6349 36.0211 36.1746 35.2655C36.7129 34.512 37 33.5162 37 32.5C37 31.4838 36.7129 30.488 36.1746 29.7345C35.6349 28.9789 34.8603 28.5 34 28.5ZM34 14.5H4C3.13967 14.5 2.36511 14.9789 1.82537 15.7345C1.28713 16.488 1 17.4838 1 18.5C1 19.5162 1.28713 20.512 1.82537 21.2655C2.36511 22.0211 3.13967 22.5 4 22.5H34C34.8603 22.5 35.6349 22.0211 36.1746 21.2655C36.7129 20.512 37 19.5162 37 18.5C37 17.4838 36.7129 16.488 36.1746 15.7345C35.6349 14.9789 34.8603 14.5 34 14.5Z" fill="#5D5D5D" stroke="#5D5D5D"/>
<path d="M28 4.49988C28 6.98516 25.9853 8.99988 23.5 8.99988C21.0147 8.99988 19 6.98516 19 4.49988C19 2.0146 21.0147 -0.000120636 23.5 -0.000120636C25.9853 -0.000120636 28 2.0146 28 4.49988Z" fill="#5D5D5D"/>
<path d="M19 32.4999C19 34.9852 16.9853 36.9999 14.5 36.9999C12.0147 36.9999 10 34.9852 10 32.4999C10 30.0146 12.0147 27.9999 14.5 27.9999C16.9853 27.9999 19 30.0146 19 32.4999Z" fill="#5D5D5D"/>
<rect x="15" width="8" height="9" fill="#5D5D5D"/>
<rect x="14" y="28" width="10" height="9" fill="#5D5D5D"/>
</svg>
