<svg width="44" height="44" viewBox="0 0 44 44" fill="none" xmlns="http://www.w3.org/2000/svg">
<circle cx="22" cy="22" r="22" fill="#F75959"/>
<path d="M33.3 9H11.7C10.2015 9 9 10.2361 9 11.7778V31.2222C9 32.7639 10.2015 34 11.7 34H33.3C34.7985 34 36 32.7639 36 31.2222V11.7778C36 10.2361 34.7985 9 33.3 9ZM13.05 14.5556H19.8V22.8889H13.05V14.5556ZM31.95 28.4444H13.05V25.6667H31.95V28.4444ZM31.95 22.8889H22.5V20.1111H31.95V22.8889ZM31.95 17.3333H22.5V14.5556H31.95V17.3333Z" fill="#FAFAFA"/>
<circle cx="28.5" cy="25.5" r="7.5" fill="#FAFAFA"/>
<path fill-rule="evenodd" clip-rule="evenodd" d="M22 25.5C22 21.9101 24.9101 19 28.5 19C32.0899 19 35 21.9101 35 25.5C35 29.0899 32.0899 32 28.5 32C24.9101 32 22 29.0899 22 25.5ZM29.15 22.9C29.15 22.7276 29.0815 22.5623 28.9596 22.4404C28.8377 22.3185 28.6724 22.25 28.5 22.25C28.3276 22.25 28.1623 22.3185 28.0404 22.4404C27.9185 22.5623 27.85 22.7276 27.85 22.9V25.5C27.85 25.6724 27.9185 25.8377 28.0405 25.9596L29.9905 27.9096C30.113 28.028 30.2772 28.0935 30.4477 28.092C30.6181 28.0905 30.7811 28.0221 30.9016 27.9016C31.0221 27.7811 31.0905 27.6181 31.092 27.4477C31.0935 27.2772 31.028 27.113 30.9096 26.9905L29.15 25.2309V22.9Z" fill="#F75959"/>
</svg>
