<svg width="52" height="59" viewBox="0 0 52 59" fill="none" xmlns="http://www.w3.org/2000/svg">
<rect x="4" y="4" width="44" height="51" rx="3" fill="#D9D9D9" stroke="#5D5D5D" stroke-width="7"/>
<rect x="4" y="41" width="44" height="13" fill="#5D5D5D"/>
<rect x="5.72552" y="6" width="40.549" height="36" rx="2" fill="#D9D9D9"/>
<path d="M39 21.6998C39 22.3337 38.8167 22.9534 38.4733 23.4805C38.13 24.0076 37.6419 24.4184 37.0709 24.661C36.4999 24.9036 35.8715 24.967 35.2653 24.8434C34.6592 24.7197 34.1023 24.4144 33.6653 23.9662C33.2283 23.5179 32.9306 22.9468 32.81 22.3251C32.6895 21.7033 32.7514 21.0589 32.9879 20.4732C33.2244 19.8875 33.6249 19.387 34.1388 19.0348C34.6527 18.6826 35.2569 18.4946 35.875 18.4946C36.7038 18.4946 37.4987 18.8323 38.0847 19.4334C38.6708 20.0345 39 20.8497 39 21.6998ZM20.25 21.6998C20.25 21.0658 20.0667 20.4462 19.7233 19.9191C19.38 19.392 18.8919 18.9812 18.3209 18.7386C17.7499 18.496 17.1215 18.4325 16.5153 18.5562C15.9092 18.6799 15.3523 18.9851 14.9153 19.4334C14.4783 19.8816 14.1806 20.4527 14.06 21.0745C13.9395 21.6962 14.0014 22.3407 14.2379 22.9263C14.4744 23.512 14.8749 24.0126 15.3888 24.3648C15.9027 24.717 16.5069 24.9049 17.125 24.9049C17.9538 24.9049 18.7487 24.5673 19.3347 23.9662C19.9208 23.3651 20.25 22.5498 20.25 21.6998ZM22.4821 19.4104C23.1002 19.4104 23.7044 19.2224 24.2183 18.8702C24.7322 18.518 25.1327 18.0174 25.3693 17.4317C25.6058 16.8461 25.6677 16.2016 25.5471 15.5799C25.4265 14.9581 25.1289 14.387 24.6919 13.9388C24.2548 13.4905 23.698 13.1853 23.0918 13.0616C22.4856 12.9379 21.8573 13.0014 21.2863 13.244C20.7152 13.4866 20.2272 13.8974 19.8838 14.4245C19.5404 14.9516 19.3571 15.5713 19.3571 16.2052C19.3571 17.0552 19.6864 17.8705 20.2724 18.4716C20.8585 19.0727 21.6533 19.4104 22.4821 19.4104ZM30.5179 19.4104C31.1359 19.4104 31.7401 19.2224 32.254 18.8702C32.7679 18.518 33.1685 18.0174 33.405 17.4317C33.6415 16.8461 33.7034 16.2016 33.5828 15.5799C33.4622 14.9581 33.1646 14.387 32.7276 13.9388C32.2905 13.4905 31.7337 13.1853 31.1275 13.0616C30.5213 12.9379 29.893 13.0014 29.322 13.244C28.751 13.4866 28.2629 13.8974 27.9195 14.4245C27.5761 14.9516 27.3929 15.5713 27.3929 16.2052C27.3929 17.0552 27.7221 17.8705 28.3081 18.4716C28.8942 19.0727 29.6891 19.4104 30.5179 19.4104ZM33.0982 26.377C32.6447 26.1204 32.245 25.7746 31.9219 25.3594C31.5988 24.9441 31.3587 24.4676 31.2154 23.9571C30.9185 22.91 30.2983 21.99 29.448 21.3353C28.5977 20.6807 27.5632 20.3268 26.5 20.3268C25.4368 20.3268 24.4023 20.6807 23.552 21.3353C22.7017 21.99 22.0815 22.91 21.7846 23.9571C21.4978 24.9843 20.8255 25.853 19.9152 26.3725C19.0419 26.8571 18.351 27.6266 17.9519 28.5591C17.5528 29.4917 17.4682 30.5341 17.7115 31.5215C17.9548 32.5088 18.5121 33.3849 19.2953 34.0109C20.0784 34.637 21.0428 34.9774 22.0357 34.9784C22.6308 34.9801 23.22 34.8582 23.7679 34.6201C25.5146 33.8813 27.4754 33.8813 29.2221 34.6201C30.2801 35.092 31.4751 35.1255 32.5567 34.7136C33.6382 34.3017 34.5223 33.4763 35.0235 32.4105C35.5248 31.3447 35.6043 30.1212 35.2453 28.9966C34.8864 27.8721 34.1169 26.9337 33.0982 26.3782V26.377Z" fill="#5D5D5D"/>
</svg>
