<svg width="44" height="44" viewBox="0 0 44 44" fill="none" xmlns="http://www.w3.org/2000/svg">
<circle cx="22" cy="22" r="22" fill="#F75959"/>
<path d="M20.4918 6.62459C20.8918 6.22466 21.4343 6 22 6C22.5657 6 23.1082 6.22466 23.5082 6.62459L28.3998 11.5161V8.75784C28.3998 8.47495 28.5121 8.20365 28.7122 8.00362C28.9122 7.80359 29.1835 7.69121 29.4664 7.69121H31.5996C31.8825 7.69121 32.1538 7.80359 32.3539 8.00362C32.5539 8.20365 32.6663 8.47495 32.6663 8.75784V15.7826L37.6879 20.8022C37.888 21.0025 38.0002 21.274 38 21.5571C37.9998 21.8401 37.8872 22.1115 37.6869 22.3115C37.4866 22.5115 37.2151 22.6237 36.932 22.6235C36.649 22.6233 36.3776 22.5107 36.1776 22.3104L22 8.1328L7.82239 22.3104C7.62239 22.5107 7.35102 22.6233 7.06797 22.6235C6.78493 22.6237 6.5134 22.5115 6.31312 22.3115C6.11283 22.1115 6.0002 21.8401 6 21.5571C5.9998 21.274 6.11205 21.0025 6.31205 20.8022L20.4918 6.62459Z" fill="#FAFAFA"/>
<path d="M34.7992 23.2492L21.9997 10.4497L9.2002 23.2492V32.2238C9.2002 33.0725 9.53732 33.8864 10.1374 34.4865C10.7375 35.0866 11.5514 35.4237 12.4001 35.4237H31.5994C32.448 35.4237 33.2619 35.0866 33.862 34.4865C34.4621 33.8864 34.7992 33.0725 34.7992 32.2238V23.2492ZM21.9997 21.5192C25.5495 17.9502 34.4259 24.1943 21.9997 32.2238C9.57352 24.1943 18.45 17.9502 21.9997 21.5192Z" fill="#FAFAFA"/>
</svg>
