<svg width="44" height="44" viewBox="0 0 44 44" fill="none" xmlns="http://www.w3.org/2000/svg">
<circle cx="22" cy="22" r="22" fill="#F75959"/>
<path d="M33.3 9H11.7C10.2015 9 9 10.2361 9 11.7778V31.2222C9 32.7639 10.2015 34 11.7 34H33.3C34.7985 34 36 32.7639 36 31.2222V11.7778C36 10.2361 34.7985 9 33.3 9ZM13.05 14.5556H19.8V22.8889H13.05V14.5556ZM31.95 28.4444H13.05V25.6667H31.95V28.4444ZM31.95 22.8889H22.5V20.1111H31.95V22.8889ZM31.95 17.3333H22.5V14.5556H31.95V17.3333Z" fill="#FAFAFA"/>
<circle cx="28.5" cy="25.5" r="7.5" fill="white"/>
<path d="M28.5 19C32.0899 19 35 21.9101 35 25.5C35 29.0899 32.0899 32 28.5 32C24.9101 32 22 29.0899 22 25.5C22 21.9101 24.9101 19 28.5 19ZM30.84 22.38C30.7717 22.3288 30.694 22.2915 30.6113 22.2703C30.5286 22.2492 30.4426 22.2445 30.3581 22.2565C30.2736 22.2686 30.1923 22.2972 30.1188 22.3407C30.0454 22.3842 29.9812 22.4417 29.93 22.51L28.5 24.4164L27.07 22.51C27.0188 22.4417 26.9546 22.3842 26.8812 22.3407C26.8077 22.2972 26.7264 22.2686 26.6419 22.2565C26.5574 22.2445 26.4714 22.2492 26.3887 22.2703C26.306 22.2915 26.2283 22.3288 26.16 22.38C26.0917 22.4312 26.0342 22.4954 25.9907 22.5688C25.9472 22.6423 25.9186 22.7236 25.9065 22.8081C25.8945 22.8926 25.8992 22.9786 25.9203 23.0613C25.9415 23.144 25.9788 23.2217 26.03 23.29L27.6875 25.5L26.03 27.71C25.9266 27.8479 25.8822 28.0213 25.9065 28.1919C25.9309 28.3626 26.0221 28.5166 26.16 28.62C26.2979 28.7234 26.4713 28.7678 26.6419 28.7435C26.8126 28.7191 26.9666 28.6279 27.07 28.49L28.5 26.5835L29.93 28.49C30.0334 28.6279 30.1874 28.7191 30.3581 28.7435C30.5287 28.7678 30.7021 28.7234 30.84 28.62C30.9779 28.5166 31.0691 28.3626 31.0935 28.1919C31.1178 28.0213 31.0734 27.8479 30.97 27.71L29.3125 25.5L30.97 23.29C31.0212 23.2217 31.0585 23.144 31.0797 23.0613C31.1008 22.9786 31.1055 22.8926 31.0935 22.8081C31.0814 22.7236 31.0528 22.6423 31.0093 22.5688C30.9658 22.4954 30.9083 22.4312 30.84 22.38Z" fill="#F75959"/>
</svg>
