<svg width="22" height="22" viewBox="0 0 22 22" fill="none" xmlns="http://www.w3.org/2000/svg">
<path fill-rule="evenodd" clip-rule="evenodd" d="M0 11C0 4.9247 4.9247 0 11 0C17.0753 0 22 4.9247 22 11C22 17.0753 17.0753 22 11 22C4.9247 22 0 17.0753 0 11ZM12.1 6.6C12.1 6.30826 11.9841 6.02847 11.7778 5.82218C11.5715 5.61589 11.2917 5.5 11 5.5C10.7083 5.5 10.4285 5.61589 10.2222 5.82218C10.0159 6.02847 9.9 6.30826 9.9 6.6V11C9.90006 11.2917 10.016 11.5715 10.2223 11.7777L13.5223 15.0777C13.7298 15.2781 14.0076 15.3889 14.296 15.3864C14.5845 15.3839 14.8604 15.2682 15.0643 15.0643C15.2682 14.8604 15.3839 14.5845 15.3864 14.296C15.3889 14.0076 15.2781 13.7298 15.0777 13.5223L12.1 10.5446V6.6Z" fill="#FAFAFA"/>
</svg>
