<svg width="19" height="22" viewBox="0 0 19 22" fill="none" xmlns="http://www.w3.org/2000/svg">
<path fill-rule="evenodd" clip-rule="evenodd" d="M9.5 0V7.15C9.5 7.58761 9.68767 8.00729 10.0217 8.31673C10.3558 8.62616 10.8088 8.8 11.2812 8.8H19V19.8C19 20.3835 18.7498 20.9431 18.3044 21.3556C17.859 21.7682 17.2549 22 16.625 22H2.375C1.74511 22 1.14102 21.7682 0.695621 21.3556C0.250222 20.9431 0 20.3835 0 19.8V2.2C0 1.61652 0.250222 1.05695 0.695621 0.644365C1.14102 0.231785 1.74511 0 2.375 0H9.5ZM13.0625 14.3H5.9375C5.62256 14.3 5.32051 14.4159 5.09781 14.6222C4.87511 14.8285 4.75 15.1083 4.75 15.4C4.75 15.6917 4.87511 15.9715 5.09781 16.1778C5.32051 16.3841 5.62256 16.5 5.9375 16.5H13.0625C13.3774 16.5 13.6795 16.3841 13.9022 16.1778C14.1249 15.9715 14.25 15.6917 14.25 15.4C14.25 15.1083 14.1249 14.8285 13.9022 14.6222C13.6795 14.4159 13.3774 14.3 13.0625 14.3ZM7.125 9.9H5.9375C5.62256 9.9 5.32051 10.0159 5.09781 10.2222C4.87511 10.4285 4.75 10.7083 4.75 11C4.75 11.2917 4.87511 11.5715 5.09781 11.7778C5.32051 11.9841 5.62256 12.1 5.9375 12.1H7.125C7.43994 12.1 7.74199 11.9841 7.96469 11.7778C8.18739 11.5715 8.3125 11.2917 8.3125 11C8.3125 10.7083 8.18739 10.4285 7.96469 10.2222C7.74199 10.0159 7.43994 9.9 7.125 9.9ZM11.875 0.0473C12.3249 0.135691 12.7375 0.343191 13.0625 0.6446L18.3041 5.5C18.6295 5.8011 18.8535 6.18323 18.9489 6.6H11.875V0.0473Z" fill="#FAFAFA"/>
</svg>
