<svg width="22" height="19" viewBox="0 0 22 19" fill="none" xmlns="http://www.w3.org/2000/svg">
<path fill-rule="evenodd" clip-rule="evenodd" d="M11 0.000976562C4.9247 0.000976562 1.82131e-06 4.25407 1.82131e-06 9.50086C-0.000930759 10.9005 0.356285 12.2831 1.0461 13.5497L0.0231017 17.8598C-0.0133203 18.0137 -0.00498988 18.173 0.0473474 18.3234C0.0996847 18.4738 0.194396 18.6107 0.323002 18.7218C0.451609 18.8329 0.610097 18.9146 0.784281 18.9598C0.958465 19.005 1.14291 19.0122 1.3211 18.9808L6.3118 18.0973C7.7352 18.6768 9.3258 18.9998 11 18.9998C17.0753 18.9998 22 14.7476 22 9.49991C22 4.25407 17.0753 0.000976562 11 0.000976562Z" fill="#FAFAFA"/>
</svg>
