<svg width="29" height="24" viewBox="0 0 29 24" fill="none" xmlns="http://www.w3.org/2000/svg">
<path d="M29 9.49066C29 10.1822 28.7874 10.8582 28.3891 11.4332C27.9908 12.0082 27.4246 12.4564 26.7622 12.7211C26.0998 12.9857 25.371 13.0549 24.6678 12.92C23.9646 12.7851 23.3187 12.4521 22.8117 11.9631C22.3048 11.4741 21.9595 10.8511 21.8197 10.1728C21.6798 9.49454 21.7516 8.79149 22.0259 8.15258C22.3003 7.51367 22.7649 6.96758 23.3611 6.58338C23.9572 6.19917 24.658 5.9941 25.375 5.9941C26.3364 5.9941 27.2584 6.36249 27.9383 7.01822C28.6181 7.67395 29 8.56331 29 9.49066ZM7.25 9.49066C7.25 8.7991 7.0374 8.12308 6.63908 7.54807C6.24076 6.97307 5.67461 6.5249 5.01223 6.26026C4.34985 5.99561 3.62098 5.92637 2.9178 6.06128C2.21462 6.1962 1.5687 6.52922 1.06174 7.01822C0.554774 7.50722 0.209526 8.13025 0.069655 8.80851C-0.0702164 9.48678 0.00157065 10.1898 0.275938 10.8287C0.550306 11.4676 1.01493 12.0137 1.61106 12.3979C2.20719 12.7821 2.90804 12.9872 3.625 12.9872C4.58641 12.9872 5.50844 12.6188 6.18826 11.9631C6.86808 11.3074 7.25 10.418 7.25 9.49066ZM9.83929 6.99312C10.5562 6.99312 11.2571 6.78805 11.8532 6.40384C12.4494 6.01963 12.914 5.47355 13.1884 4.83463C13.4627 4.19572 13.5345 3.49268 13.3946 2.81441C13.2548 2.13615 12.9095 1.51312 12.4025 1.02412C11.8956 0.535117 11.2497 0.202102 10.5465 0.0671869C9.84331 -0.0677285 9.11444 0.001515 8.45206 0.266161C7.78968 0.530807 7.22353 0.97897 6.82521 1.55398C6.42689 2.12898 6.21429 2.805 6.21429 3.49656C6.21429 4.4239 6.59621 5.31327 7.27602 5.969C7.95584 6.62473 8.87788 6.99312 9.83929 6.99312ZM19.1607 6.99312C19.8777 6.99312 20.5785 6.78805 21.1747 6.40384C21.7708 6.01963 22.2354 5.47355 22.5098 4.83463C22.7841 4.19572 22.8559 3.49268 22.7161 2.81441C22.5762 2.13615 22.2309 1.51312 21.724 1.02412C21.217 0.535117 20.5711 0.202102 19.8679 0.0671869C19.1647 -0.0677285 18.4359 0.001515 17.7735 0.266161C17.1111 0.530807 16.545 0.97897 16.1466 1.55398C15.7483 2.12898 15.5357 2.805 15.5357 3.49656C15.5357 4.4239 15.9176 5.31327 16.5975 5.969C17.2773 6.62473 18.1993 6.99312 19.1607 6.99312ZM22.1539 14.5931C21.6278 14.3132 21.1642 13.9359 20.7894 13.4829C20.4146 13.03 20.1361 12.5101 19.9699 11.9532C19.6255 10.8109 18.9061 9.80726 17.9197 9.0931C16.9333 8.37893 15.7333 7.99284 14.5 7.99284C13.2667 7.99284 12.0667 8.37893 11.0803 9.0931C10.0939 9.80726 9.3745 10.8109 9.03014 11.9532C8.69748 13.0738 7.91762 14.0214 6.86161 14.5881C5.84858 15.1169 5.0472 15.9563 4.58424 16.9736C4.12127 17.9909 4.02314 19.1281 4.30537 20.2052C4.58759 21.2824 5.23406 22.238 6.14253 22.921C7.05099 23.604 8.1696 23.9754 9.32143 23.9764C10.0117 23.9782 10.6952 23.8453 11.3307 23.5855C13.3569 22.7796 15.6314 22.7796 17.6576 23.5855C18.8849 24.1004 20.2711 24.1369 21.5257 23.6876C22.7803 23.2382 23.8059 22.3378 24.3873 21.1751C24.9687 20.0124 25.061 18.6777 24.6446 17.4509C24.2282 16.2241 23.3356 15.2003 22.1539 14.5944V14.5931Z" fill="#FAFAFA"/>
</svg>
