<svg width="17" height="17" viewBox="0 0 17 17" fill="none" xmlns="http://www.w3.org/2000/svg">
<path d="M10.7273 0.515137C12.6853 0.515137 14.2518 2.11211 14.2518 4.10832C14.2518 4.81098 14.0559 5.47373 13.7113 6.02468L16.1236 8.49998L15.035 9.60988L12.5913 7.15853C12.0509 7.50188 11.4087 7.7015 10.7273 7.7015C8.76927 7.7015 7.20284 6.10453 7.20284 4.10832C7.20284 2.11211 8.76927 0.515137 10.7273 0.515137ZM10.7273 2.11211C10.208 2.11211 9.70996 2.32242 9.34276 2.69678C8.97556 3.07115 8.76927 3.57889 8.76927 4.10832C8.76927 4.63775 8.97556 5.14549 9.34276 5.51985C9.70996 5.89422 10.208 6.10453 10.7273 6.10453C11.2466 6.10453 11.7446 5.89422 12.1118 5.51985C12.479 5.14549 12.6853 4.63775 12.6853 4.10832C12.6853 3.57889 12.479 3.07115 12.1118 2.69678C11.7446 2.32242 11.2466 2.11211 10.7273 2.11211ZM4.4616 10.4962L1.72036 14.0894H12.6853L9.16087 9.29847L6.41963 12.8917L4.4616 10.4962ZM14.2518 14.8879C14.2518 15.3114 14.0867 15.7176 13.793 16.0171C13.4992 16.3166 13.1008 16.4848 12.6853 16.4848H1.72036C1.30491 16.4848 0.906487 16.3166 0.612726 16.0171C0.318964 15.7176 0.153931 15.3114 0.153931 14.8879V3.70908C0.153931 3.28553 0.318964 2.87934 0.612726 2.57985C0.906487 2.28036 1.30491 2.11211 1.72036 2.11211H6.02802C5.77739 2.72694 5.63642 3.39767 5.63642 4.10832C5.63642 5.48483 6.17278 6.80497 7.1275 7.77831C8.08223 8.75165 9.37711 9.29847 10.7273 9.29847C11.2599 9.29847 11.7768 9.21064 12.2624 9.05892L14.2518 11.0871V14.8879Z" fill="#85B728"/>
</svg>
