<svg width="18" height="17" viewBox="0 0 18 17" fill="none" xmlns="http://www.w3.org/2000/svg">
<path d="M0.725851 1.41642L1.79181 0.354618L16.965 15.5877L15.9074 16.6578L14.2418 14.9857C14.1252 15.0693 14.0003 15.1362 13.8754 15.1947C12.3847 15.8803 10.6192 14.459 8.96201 14.459C7.30478 14.459 5.52264 15.9388 4.05696 15.1947C3.22418 14.7851 2.64956 13.6982 2.75783 12.7952C2.90773 11.5495 4.39839 10.8806 5.28114 9.96933C5.89739 9.35901 6.42204 8.45606 7.01331 7.72869L0.725851 1.41642ZM6.01398 0.354618C6.99666 0.212487 8.03763 1.29101 8.33743 2.7792C8.48733 3.48985 8.43736 4.16706 8.22084 4.69378L4.91472 1.35789C5.13124 0.814452 5.51432 0.438224 6.01398 0.354618ZM11.9683 0.354618C12.9593 0.51347 13.509 1.83445 13.2175 3.31428C12.901 4.80247 11.8601 5.88099 10.8774 5.7305C9.88639 5.58001 9.34509 4.25903 9.65321 2.7792C9.95301 1.29101 10.994 0.212487 11.9683 0.354618ZM1.55863 4.2005C2.50799 3.79083 3.7988 4.53493 4.47334 5.83083C5.10625 7.1518 4.88973 8.53967 3.9487 8.94934C3.00766 9.35901 1.72518 8.62327 1.06729 7.31066C0.409396 5.99804 0.642574 4.60181 1.55863 4.2005ZM16.5486 4.2005C17.4647 4.60181 17.6978 5.99804 17.0399 7.31066C16.382 8.62327 15.0996 9.35901 14.1585 8.94934C13.2175 8.53967 13.001 7.1518 13.6339 5.83083C14.3084 4.53493 15.5992 3.79083 16.5486 4.2005Z" fill="#ED5050"/>
</svg>
