<svg width="21" height="18" viewBox="0 0 21 18" fill="none" xmlns="http://www.w3.org/2000/svg">
<path d="M1.00287 18.0022H19.5329C20.3029 18.0022 20.7829 17.1722 20.4029 16.5022L11.1329 0.502248C11.0458 0.349687 10.9199 0.222872 10.768 0.134666C10.6161 0.0464596 10.4435 0 10.2679 0C10.0922 0 9.91967 0.0464596 9.76775 0.134666C9.61584 0.222872 9.48996 0.349687 9.40287 0.502248L0.132872 16.5022C-0.247128 17.1722 0.232872 18.0022 1.00287 18.0022ZM11.2729 15.0022H9.27287V13.0022H11.2729V15.0022ZM10.2729 11.0022C9.72287 11.0022 9.27287 10.5522 9.27287 10.0022V8.00225C9.27287 7.45225 9.72287 7.00225 10.2729 7.00225C10.8229 7.00225 11.2729 7.45225 11.2729 8.00225V10.0022C11.2729 10.5522 10.8229 11.0022 10.2729 11.0022Z" fill="#5D5D5D"/>
</svg>
