<svg width="18" height="18" viewBox="0 0 18 18" fill="none" xmlns="http://www.w3.org/2000/svg">
<path d="M2.79239 17.658C2.28139 17.658 1.8441 17.4762 1.48051 17.1126C1.11693 16.749 0.934823 16.3114 0.934204 15.7998V2.79251C0.934204 2.28151 1.11631 1.84422 1.48051 1.48063C1.84472 1.11705 2.28201 0.934946 2.79239 0.934326H15.7997C16.3107 0.934326 16.7483 1.11643 17.1125 1.48063C17.4767 1.84484 17.6585 2.28213 17.6579 2.79251V15.7998C17.6579 16.3108 17.4761 16.7484 17.1125 17.1126C16.7489 17.4768 16.3113 17.6586 15.7997 17.658H2.79239ZM3.72148 13.9416H14.8706L11.3865 9.29617L8.59923 13.0125L6.50876 10.2253L3.72148 13.9416Z" fill="#A87CCD"/>
</svg>
