<svg width="15" height="13" viewBox="0 0 15 13" fill="none" xmlns="http://www.w3.org/2000/svg">
<path d="M15 5.14077C15 5.51536 14.89 5.88154 14.684 6.193C14.478 6.50447 14.1851 6.74722 13.8425 6.89057C13.4999 7.03392 13.1229 7.07143 12.7592 6.99835C12.3955 6.92527 12.0614 6.74489 11.7992 6.48001C11.537 6.21513 11.3584 5.87766 11.286 5.51027C11.2137 5.14287 11.2508 4.76206 11.3927 4.41598C11.5346 4.0699 11.775 3.77411 12.0833 3.566C12.3916 3.35788 12.7542 3.2468 13.125 3.2468C13.6223 3.2468 14.0992 3.44635 14.4508 3.80153C14.8025 4.15672 15 4.63846 15 5.14077ZM3.75 5.14077C3.75 4.76618 3.64003 4.4 3.43401 4.08854C3.22798 3.77708 2.93514 3.53432 2.59253 3.39097C2.24992 3.24762 1.87292 3.21012 1.50921 3.2832C1.14549 3.35627 0.811399 3.53666 0.549176 3.80153C0.286952 4.06641 0.108376 4.40388 0.0360284 4.77128C-0.0363188 5.13867 0.000812402 5.51949 0.142727 5.86556C0.284641 6.21164 0.524964 6.50744 0.833307 6.71555C1.14165 6.92366 1.50416 7.03474 1.875 7.03474C2.37228 7.03474 2.8492 6.8352 3.20083 6.48001C3.55246 6.12482 3.75 5.64308 3.75 5.14077ZM5.08929 3.78794C5.46013 3.78794 5.82264 3.67686 6.13098 3.46875C6.43932 3.26063 6.67965 2.96484 6.82156 2.61876C6.96348 2.27268 7.00061 1.89187 6.92826 1.52447C6.85591 1.15708 6.67734 0.819608 6.41511 0.554731C6.15289 0.289855 5.8188 0.109472 5.45508 0.0363929C5.09137 -0.0366863 4.71437 0.000820622 4.37176 0.144171C4.02914 0.287521 3.73631 0.530275 3.53028 0.841737C3.32425 1.1532 3.21429 1.51938 3.21429 1.89397C3.21429 2.39628 3.41183 2.87802 3.76346 3.23321C4.11509 3.5884 4.59201 3.78794 5.08929 3.78794ZM9.91071 3.78794C10.2816 3.78794 10.6441 3.67686 10.9524 3.46875C11.2608 3.26063 11.5011 2.96484 11.643 2.61876C11.7849 2.27268 11.822 1.89187 11.7497 1.52447C11.6773 1.15708 11.4988 0.819608 11.2365 0.554731C10.9743 0.289855 10.6402 0.109472 10.2765 0.0363929C9.91279 -0.0366863 9.5358 0.000820622 9.19318 0.144171C8.85057 0.287521 8.55774 0.530275 8.35171 0.841737C8.14568 1.1532 8.03571 1.51938 8.03571 1.89397C8.03571 2.39628 8.23326 2.87802 8.58489 3.23321C8.93652 3.5884 9.41343 3.78794 9.91071 3.78794ZM11.4589 7.90461C11.1868 7.75298 10.947 7.54863 10.7531 7.30326C10.5593 7.0579 10.4152 6.77633 10.3292 6.47467C10.1511 5.85591 9.779 5.31227 9.26882 4.92543C8.75863 4.53859 8.13793 4.32945 7.5 4.32945C6.86207 4.32945 6.24137 4.53859 5.73119 4.92543C5.221 5.31227 4.84888 5.85591 4.67076 6.47467C4.4987 7.08166 4.09532 7.59494 3.54911 7.90191C3.02513 8.1883 2.61062 8.64298 2.37116 9.19403C2.13169 9.74508 2.08094 10.361 2.22691 10.9445C2.37289 11.528 2.70727 12.0456 3.17717 12.4156C3.64707 12.7855 4.22566 12.9867 4.82143 12.9872C5.17845 12.9882 5.53198 12.9162 5.86071 12.7755C6.90876 12.339 8.08521 12.339 9.13326 12.7755C9.76805 13.0544 10.4851 13.0742 11.134 12.8308C11.7829 12.5874 12.3134 12.0996 12.6141 11.4698C12.9149 10.84 12.9626 10.1171 12.7472 9.45256C12.5318 8.78803 12.0701 8.23285 11.4589 7.90461Z" fill="#5D5D5D"/>
</svg>
