<svg width="92" height="92" viewBox="0 0 92 92" fill="none" xmlns="http://www.w3.org/2000/svg">
<circle cx="46" cy="46" r="46" fill="#A4A4A4"/>
<path fill-rule="evenodd" clip-rule="evenodd" d="M34.7222 28.7778C34.7222 25.6541 35.9631 22.6584 38.1719 20.4496C40.3806 18.2409 43.3763 17 46.5 17C49.6237 17 52.6194 18.2409 54.8281 20.4496C57.0369 22.6584 58.2778 25.6541 58.2778 28.7778C58.2778 31.9014 57.0369 34.8972 54.8281 37.1059C52.6194 39.3147 49.6237 40.5556 46.5 40.5556C43.3763 40.5556 40.3806 39.3147 38.1719 37.1059C35.9631 34.8972 34.7222 31.9014 34.7222 28.7778ZM34.7222 46.4444C30.8176 46.4444 27.073 47.9955 24.312 50.7565C21.5511 53.5174 20 57.2621 20 61.1667C20 63.5094 20.9307 65.7562 22.5872 67.4128C24.2438 69.0693 26.4906 70 28.8333 70H64.1667C66.5094 70 68.7562 69.0693 70.4128 67.4128C72.0693 65.7562 73 63.5094 73 61.1667C73 57.2621 71.4489 53.5174 68.688 50.7565C65.927 47.9955 62.1824 46.4444 58.2778 46.4444H34.7222Z" fill="#5D5D5D"/>
</svg>
