<svg width="46" height="40" viewBox="0 0 46 40" fill="none" xmlns="http://www.w3.org/2000/svg">
<path d="M45.5 15.4375C45.5 16.5624 45.1664 17.662 44.5415 18.5973C43.9165 19.5326 43.0283 20.2616 41.989 20.6921C40.9498 21.1225 39.8062 21.2352 38.7029 21.0157C37.5997 20.7963 36.5862 20.2546 35.7908 19.4592C34.9954 18.6638 34.4537 17.6503 34.2343 16.5471C34.0148 15.4438 34.1275 14.3002 34.5579 13.261C34.9884 12.2217 35.7174 11.3335 36.6527 10.7085C37.588 10.0836 38.6876 9.75 39.8125 9.75C41.3209 9.75 42.7676 10.3492 43.8342 11.4158C44.9008 12.4824 45.5 13.9291 45.5 15.4375ZM11.375 15.4375C11.375 14.3126 11.0414 13.213 10.4165 12.2777C9.79154 11.3424 8.90327 10.6134 7.86401 10.1829C6.82476 9.75246 5.68119 9.63983 4.57793 9.85929C3.47466 10.0787 2.46124 10.6204 1.66583 11.4158C0.870422 12.2112 0.32874 13.2247 0.109286 14.3279C-0.110167 15.4312 0.00246429 16.5748 0.432938 17.614C0.863411 18.6533 1.59239 19.5415 2.5277 20.1665C3.463 20.7914 4.56262 21.125 5.6875 21.125C7.19592 21.125 8.64256 20.5258 9.70917 19.4592C10.7758 18.3926 11.375 16.9459 11.375 15.4375ZM15.4375 11.375C16.5624 11.375 17.662 11.0414 18.5973 10.4165C19.5326 9.79154 20.2616 8.90327 20.6921 7.86401C21.1225 6.82476 21.2352 5.68119 21.0157 4.57793C20.7963 3.47466 20.2546 2.46124 19.4592 1.66583C18.6638 0.870422 17.6503 0.32874 16.5471 0.109286C15.4438 -0.110167 14.3002 0.00246429 13.261 0.432938C12.2217 0.863411 11.3335 1.59239 10.7085 2.5277C10.0836 3.463 9.75 4.56262 9.75 5.6875C9.75 7.19592 10.3492 8.64256 11.4158 9.70917C12.4824 10.7758 13.9291 11.375 15.4375 11.375ZM30.0625 11.375C31.1874 11.375 32.287 11.0414 33.2223 10.4165C34.1576 9.79154 34.8866 8.90327 35.3171 7.86401C35.7475 6.82476 35.8602 5.68119 35.6407 4.57793C35.4213 3.47466 34.8796 2.46124 34.0842 1.66583C33.2888 0.870422 32.2753 0.32874 31.1721 0.109286C30.0688 -0.110167 28.9252 0.00246429 27.886 0.432938C26.8467 0.863411 25.9585 1.59239 25.3335 2.5277C24.7086 3.463 24.375 4.56262 24.375 5.6875C24.375 7.19592 24.9742 8.64256 26.0408 9.70917C27.1074 10.7758 28.5541 11.375 30.0625 11.375ZM34.7588 23.7372C33.9333 23.2818 33.2058 22.6682 32.6178 21.9314C32.0298 21.1945 31.5929 20.349 31.332 19.4431C30.7917 17.585 29.663 15.9525 28.1154 14.7908C26.5678 13.6292 24.6851 13.0012 22.75 13.0012C20.815 13.0012 18.9322 13.6292 17.3846 14.7908C15.837 15.9525 14.7083 17.585 14.168 19.4431C13.6461 21.2659 12.4225 22.8072 10.7656 23.7291C9.17621 24.5891 7.91889 25.9545 7.19251 27.6092C6.46614 29.264 6.31217 31.1137 6.75497 32.8658C7.19777 34.6179 8.21206 36.1724 9.63741 37.2833C11.0628 38.3943 12.8178 38.9984 14.625 39C15.708 39.003 16.7803 38.7867 17.7775 38.3642C20.9566 37.0534 24.5251 37.0534 27.7042 38.3642C29.6298 39.2017 31.8047 39.2612 33.7732 38.5302C35.7416 37.7992 37.3506 36.3346 38.2628 34.4434C39.1751 32.5521 39.3198 30.3812 38.6665 28.3856C38.0132 26.3901 36.6128 24.7249 34.7588 23.7392V23.7372Z" fill="#F75959"/>
</svg>
