<svg width="42" height="42" viewBox="0 0 42 42" fill="none" xmlns="http://www.w3.org/2000/svg">
<path d="M41.1015 16.9858L41.0217 16.583H40.611H39.5V16.5H39H21H20.5V17V25V25.5H21H31.5718C29.8196 29.6132 25.7507 32.5 21 32.5C14.6491 32.5 9.5 27.3509 9.5 21C9.5 14.6491 14.6491 9.5 21 9.5C23.9304 9.5 26.5966 10.6049 28.6287 12.4126L28.9811 12.726L29.3146 12.3926L34.9716 6.73555L35.3378 6.36933L34.9589 6.01622C31.2991 2.60541 26.4009 0.5 21 0.5C9.67886 0.5 0.5 9.67886 0.5 21C0.5 32.3211 9.67886 41.5 21 41.5C32.3211 41.5 41.5 32.3211 41.5 21C41.5 19.6246 41.3584 18.283 41.1015 16.9858Z" fill="#FFC107" stroke="#FFC107"/>
<path d="M2.86386 11.4578L2.66277 11.8392L3.01046 12.0942L9.58146 16.9132L10.1 17.2934L10.3408 16.6973C12.0452 12.4773 16.1724 9.5 21.0002 9.5C23.9306 9.5 26.5968 10.6049 28.6288 12.4126L28.9812 12.726L29.3147 12.3926L34.9717 6.73555L35.3379 6.36933L34.959 6.01622C31.2993 2.60541 26.401 0.5 21.0002 0.5C13.1249 0.5 6.2967 4.94668 2.86386 11.4578Z" fill="#FF3D00" stroke="#FF3D00"/>
<path d="M41.1015 16.9858L41.0217 16.583H40.611H39.5V16.5H39H21H20.5V17V25V25.5H21H31.5707C30.7816 27.3455 29.5229 28.9574 27.9147 30.172L28.2067 30.5835L27.896 30.9507L33.9932 36.1101C34.0345 36.1663 34.0822 36.22 34.1199 36.2492C34.1837 36.2838 34.3022 36.3205 34.3535 36.3269C34.4487 36.3339 34.5214 36.3111 34.5398 36.3054L34.5401 36.3053C34.5887 36.2901 34.6249 36.2704 34.6339 36.2654L34.6345 36.2651C34.6604 36.251 34.6821 36.2364 34.6926 36.2292C34.7392 36.1975 34.8062 36.1455 34.8843 36.0811C35.0469 35.9473 35.2965 35.7275 35.6049 35.4238C36.222 34.8161 37.0814 33.8656 37.9536 32.5841C39.6986 30.0202 41.5 26.1226 41.5 21C41.5 19.6246 41.3584 18.283 41.1015 16.9858ZM34.7453 36.177L34.7453 36.177L34.7453 36.177Z" fill="#1976D2" stroke="#1976D2"/>
<path d="M9.90398 25.541C11.6948 29.9139 15.9821 33 20.9998 33C23.6074 33.0028 26.1437 32.1491 28.2188 30.57L9.90398 25.541ZM9.90398 25.541L10.022 25.4501L9.71682 25.054M9.90398 25.541L9.71682 25.054M9.71682 25.054L9.2463 25.2232C9.26442 25.2736 9.28286 25.3238 9.3016 25.3739M9.71682 25.054L9.3016 25.3739M9.3016 25.3739L3.19482 30.079C6.50482 36.556 13.2268 41 20.9998 41C25.9841 41 30.5291 39.1596 34.0302 36.1426L9.3016 25.3739ZM34.7445 36.1786L35.1677 35.7952L34.7318 35.4263L28.5418 30.1883L28.2354 29.9291L27.916 30.1721C25.9281 31.6848 23.4984 32.5027 21.0004 32.5H20.9998C16.0164 32.5 11.7826 29.3227 10.1873 24.8849L9.95522 24.2391L9.41166 24.6579L2.88966 29.6829L2.56051 29.9365L2.74959 30.3065C6.1413 36.9434 13.0309 41.5 20.9998 41.5C26.2963 41.5 31.1084 39.4725 34.7445 36.1786Z" fill="#4CAF50" stroke="#4CAF50"/>
</svg>
