<svg width="38" height="38" viewBox="0 0 38 38" fill="none" xmlns="http://www.w3.org/2000/svg">
<rect width="38" height="38" rx="19" fill="#F75959"/>
<path fill-rule="evenodd" clip-rule="evenodd" d="M19.5 8V15.15C19.5 15.5876 19.6877 16.0073 20.0217 16.3167C20.3558 16.6262 20.8088 16.8 21.2812 16.8H29V27.8C29 28.3835 28.7498 28.9431 28.3044 29.3556C27.859 29.7682 27.2549 30 26.625 30H12.375C11.7451 30 11.141 29.7682 10.6956 29.3556C10.2502 28.9431 10 28.3835 10 27.8V10.2C10 9.61652 10.2502 9.05695 10.6956 8.64436C11.141 8.23178 11.7451 8 12.375 8H19.5ZM23.0625 22.3H15.9375C15.6226 22.3 15.3205 22.4159 15.0978 22.6222C14.8751 22.8285 14.75 23.1083 14.75 23.4C14.75 23.6917 14.8751 23.9715 15.0978 24.1778C15.3205 24.3841 15.6226 24.5 15.9375 24.5H23.0625C23.3774 24.5 23.6795 24.3841 23.9022 24.1778C24.1249 23.9715 24.25 23.6917 24.25 23.4C24.25 23.1083 24.1249 22.8285 23.9022 22.6222C23.6795 22.4159 23.3774 22.3 23.0625 22.3ZM17.125 17.9H15.9375C15.6226 17.9 15.3205 18.0159 15.0978 18.2222C14.8751 18.4285 14.75 18.7083 14.75 19C14.75 19.2917 14.8751 19.5715 15.0978 19.7778C15.3205 19.9841 15.6226 20.1 15.9375 20.1H17.125C17.4399 20.1 17.742 19.9841 17.9647 19.7778C18.1874 19.5715 18.3125 19.2917 18.3125 19C18.3125 18.7083 18.1874 18.4285 17.9647 18.2222C17.742 18.0159 17.4399 17.9 17.125 17.9ZM21.875 8.0473C22.3249 8.13569 22.7375 8.34319 23.0625 8.6446L28.3041 13.5C28.6295 13.8011 28.8535 14.1832 28.9489 14.6H21.875V8.0473Z" fill="#FAFAFA"/>
</svg>
