<svg width="17" height="15" viewBox="0 0 17 15" fill="none" xmlns="http://www.w3.org/2000/svg">
<path fill-rule="evenodd" clip-rule="evenodd" d="M8.5 0.000750025C3.80545 0.000750025 1.40738e-06 3.35846 1.40738e-06 7.50065C-0.000719223 8.60567 0.275311 9.69718 0.808351 10.6971L0.0178513 14.0998C-0.010293 14.2213 -0.00385582 14.3471 0.0365866 14.4658C0.0770291 14.5846 0.150215 14.6926 0.249593 14.7803C0.34897 14.868 0.471439 14.9326 0.606036 14.9683C0.740632 15.004 0.883157 15.0096 1.02085 14.9848L4.8773 14.2873C5.9772 14.7448 7.2063 14.9998 8.5 14.9998C13.1945 14.9998 17 11.6429 17 7.4999C17 3.35846 13.1945 0 8.5 0" fill="#5D5D5D"/>
</svg>
