<svg width="38" height="38" viewBox="0 0 38 38" fill="none" xmlns="http://www.w3.org/2000/svg">
<rect width="38" height="38" rx="19" fill="#F75959"/>
<path fill-rule="evenodd" clip-rule="evenodd" d="M20 9.00095C13.9247 9.00095 9 13.254 9 18.5008C8.99907 19.9005 9.35629 21.2831 10.0461 22.5497L9.0231 26.8598C8.98668 27.0137 8.99501 27.173 9.04735 27.3234C9.09968 27.4738 9.1944 27.6107 9.323 27.7218C9.45161 27.8328 9.6101 27.9146 9.78428 27.9598C9.95847 28.005 10.1429 28.0122 10.3211 27.9808L15.3118 27.0973C16.7352 27.6768 18.3258 27.9998 20 27.9998C26.0753 27.9998 31 23.7476 31 18.4999C31 13.254 26.0753 9 20 9" fill="#FAFAFA"/>
</svg>
