<svg width="38" height="38" viewBox="0 0 38 38" fill="none" xmlns="http://www.w3.org/2000/svg">
<rect width="38" height="38" rx="19" fill="#F75959"/>
<path d="M31 16.3043C31 16.9094 30.8241 17.501 30.4944 18.0041C30.1648 18.5072 29.6962 18.8994 29.148 19.1309C28.5999 19.3625 27.9967 19.4231 27.4147 19.305C26.8328 19.187 26.2982 18.8956 25.8787 18.4677C25.4591 18.0398 25.1734 17.4947 25.0576 16.9012C24.9419 16.3077 25.0013 15.6926 25.2284 15.1335C25.4554 14.5745 25.8399 14.0966 26.3333 13.7605C26.8266 13.4243 27.4067 13.2448 28 13.2448C28.7957 13.2448 29.5587 13.5672 30.1213 14.1409C30.6839 14.7147 31 15.4929 31 16.3043ZM13 16.3043C13 15.6992 12.8241 15.1077 12.4944 14.6046C12.1648 14.1014 11.6962 13.7093 11.1481 13.4777C10.5999 13.2462 9.99667 13.1856 9.41473 13.3036C8.83279 13.4217 8.29824 13.7131 7.87868 14.1409C7.45912 14.5688 7.1734 15.114 7.05765 15.7074C6.94189 16.3009 7.0013 16.9161 7.22836 17.4751C7.45543 18.0342 7.83994 18.512 8.33329 18.8482C8.82664 19.1844 9.40666 19.3638 10 19.3638C10.7957 19.3638 11.5587 19.0415 12.1213 18.4677C12.6839 17.8939 13 17.1158 13 16.3043ZM15.1429 14.119C15.7362 14.119 16.3162 13.9395 16.8096 13.6034C17.3029 13.2672 17.6874 12.7894 17.9145 12.2303C18.1416 11.6713 18.201 11.0561 18.0852 10.4626C17.9695 9.86913 17.6837 9.32398 17.2642 8.8961C16.8446 8.46823 16.3101 8.17684 15.7281 8.05879C15.1462 7.94074 14.543 8.00133 13.9948 8.23289C13.4466 8.46446 12.9781 8.8566 12.6484 9.35973C12.3188 9.86286 12.1429 10.4544 12.1429 11.0595C12.1429 11.8709 12.4589 12.6491 13.0215 13.2229C13.5841 13.7966 14.3472 14.119 15.1429 14.119ZM22.8571 14.119C23.4505 14.119 24.0305 13.9395 24.5239 13.6034C25.0172 13.2672 25.4017 12.7894 25.6288 12.2303C25.8558 11.6713 25.9153 11.0561 25.7995 10.4626C25.6837 9.86913 25.398 9.32398 24.9785 8.8961C24.5589 8.46823 24.0244 8.17684 23.4424 8.05879C22.8605 7.94074 22.2573 8.00133 21.7091 8.23289C21.1609 8.46446 20.6924 8.8566 20.3627 9.35973C20.0331 9.86286 19.8571 10.4544 19.8571 11.0595C19.8571 11.8709 20.1732 12.6491 20.7358 13.2229C21.2984 13.7966 22.0615 14.119 22.8571 14.119ZM25.3343 20.769C24.8989 20.524 24.5152 20.1939 24.205 19.7976C23.8949 19.4012 23.6644 18.9464 23.5268 18.4591C23.2418 17.4596 22.6464 16.5814 21.8301 15.9565C21.0138 15.3316 20.0207 14.9937 19 14.9937C17.9793 14.9937 16.9862 15.3316 16.1699 15.9565C15.3536 16.5814 14.7582 17.4596 14.4732 18.4591C14.1979 19.4396 13.5525 20.2687 12.6786 20.7646C11.8402 21.2273 11.177 21.9617 10.7939 22.8519C10.4107 23.742 10.3295 24.7371 10.5631 25.6796C10.7966 26.6221 11.3316 27.4583 12.0835 28.0559C12.8353 28.6535 13.7611 28.9785 14.7143 28.9793C15.2855 28.981 15.8512 28.8646 16.3771 28.6373C18.054 27.9322 19.9363 27.9322 21.6132 28.6373C22.6289 29.0878 23.7761 29.1198 24.8144 28.7266C25.8527 28.3334 26.7014 27.5455 27.1826 26.5282C27.6638 25.5108 27.7401 24.343 27.3955 23.2695C27.0509 22.196 26.3122 21.2992 25.3343 20.769Z" fill="#FAFAFA"/>
</svg>
