<svg width="39" height="9" viewBox="0 0 39 9" fill="none" xmlns="http://www.w3.org/2000/svg">
<path d="M4.33333 0C1.95 0 0 2.025 0 4.5C0 6.975 1.95 9 4.33333 9C6.71667 9 8.66667 6.975 8.66667 4.5C8.66667 2.025 6.71667 0 4.33333 0ZM34.6667 0C32.2833 0 30.3333 2.025 30.3333 4.5C30.3333 6.975 32.2833 9 34.6667 9C37.05 9 39 6.975 39 4.5C39 2.025 37.05 0 34.6667 0ZM19.5 0C17.1167 0 15.1667 2.025 15.1667 4.5C15.1667 6.975 17.1167 9 19.5 9C21.8833 9 23.8333 6.975 23.8333 4.5C23.8333 2.025 21.8833 0 19.5 0Z" fill="#5D5D5D"/>
</svg>
