<svg width="20" height="18" viewBox="0 0 20 18" fill="none" xmlns="http://www.w3.org/2000/svg">
<path d="M8.81 0.340437C9.16704 0.117942 9.57931 0 10 0C10.4207 0 10.833 0.117942 11.19 0.340437L18.94 5.17332C19.0173 5.22132 19.091 5.27365 19.161 5.33031L10 10.1502L0.834 5.33331C0.905334 5.27665 0.980333 5.22332 1.059 5.17332L8.81 0.340437ZM0.0480002 6.61428C0.0160457 6.76823 -3.8494e-05 6.92504 6.91782e-08 7.08227V14.7501C6.91782e-08 15.612 0.34241 16.4386 0.951903 17.0481C1.5614 17.6576 2.38805 18 3.25 18H16.75C17.1768 18 17.5994 17.9159 17.9937 17.7526C18.388 17.5893 18.7463 17.3499 19.0481 17.0481C19.3499 16.7463 19.5893 16.3881 19.7526 15.9938C19.9159 15.5995 20 15.1769 20 14.7501V7.08227C20 6.92161 19.9833 6.76428 19.95 6.61028L10.35 11.6602C10.2423 11.7171 10.1224 11.7469 10.0006 11.7471C9.87884 11.7472 9.75884 11.7178 9.651 11.6612L0.0480002 6.61428Z" fill="#5D5D5D"/>
</svg>
