<svg width="27" height="26" viewBox="0 0 27 26" fill="none" xmlns="http://www.w3.org/2000/svg">
<path d="M24.0889 11.438H6.40304L14.1297 3.71137C14.7472 3.09387 14.7472 2.08054 14.1297 1.46304C13.9832 1.31626 13.8092 1.19981 13.6177 1.12035C13.4262 1.0409 13.2208 1 13.0135 1C12.8061 1 12.6008 1.0409 12.4092 1.12035C12.2177 1.19981 12.0437 1.31626 11.8972 1.46304L1.46304 11.8972C1.31626 12.0437 1.19981 12.2177 1.12035 12.4092C1.0409 12.6008 1 12.8061 1 13.0135C1 13.2208 1.0409 13.4261 1.12035 13.6177C1.19981 13.8092 1.31626 13.9832 1.46304 14.1297L11.8972 24.5639C12.0438 24.7105 12.2178 24.8267 12.4093 24.9061C12.6009 24.9854 12.8061 25.0262 13.0135 25.0262C13.2208 25.0262 13.426 24.9854 13.6176 24.9061C13.8091 24.8267 13.9831 24.7105 14.1297 24.5639C14.2763 24.4173 14.3926 24.2433 14.4719 24.0517C14.5512 23.8602 14.5921 23.6549 14.5921 23.4476C14.5921 23.2403 14.5512 23.035 14.4719 22.8435C14.3926 22.652 14.2763 22.478 14.1297 22.3314L6.40304 14.6047H24.0889C24.9597 14.6047 25.6722 13.8922 25.6722 13.0214C25.6722 12.1505 24.9597 11.438 24.0889 11.438Z" fill="#5D5D5D" stroke="#5D5D5D" stroke-width="1.5"/>
</svg>
