<svg width="25" height="26" viewBox="0 0 25 26" fill="none" xmlns="http://www.w3.org/2000/svg">
<path d="M10 4.43902H15C15 3.76628 14.7366 3.12109 14.2678 2.64539C13.7989 2.16969 13.163 1.90244 12.5 1.90244C11.837 1.90244 11.2011 2.16969 10.7322 2.64539C10.2634 3.12109 10 3.76628 10 4.43902ZM8.125 4.43902C8.125 3.85608 8.23816 3.27885 8.45803 2.74028C8.67789 2.20172 9.00015 1.71236 9.40641 1.30016C9.81266 0.887959 10.295 0.560983 10.8258 0.337901C11.3566 0.114819 11.9255 0 12.5 0C13.0745 0 13.6434 0.114819 14.1742 0.337901C14.705 0.560983 15.1873 0.887959 15.5936 1.30016C15.9998 1.71236 16.3221 2.20172 16.542 2.74028C16.7618 3.27885 16.875 3.85608 16.875 4.43902H24.0625C24.3111 4.43902 24.5496 4.53924 24.7254 4.71763C24.9012 4.89602 25 5.13796 25 5.39024C25 5.64252 24.9012 5.88447 24.7254 6.06286C24.5496 6.24125 24.3111 6.34146 24.0625 6.34146H22.4125L20.95 21.7018C20.8378 22.8787 20.2976 23.971 19.4346 24.7657C18.5716 25.5604 17.4479 26.0004 16.2825 26H8.7175C7.55233 26.0001 6.42888 25.56 5.56619 24.7653C4.7035 23.9707 4.16342 22.8785 4.05125 21.7018L2.5875 6.34146H0.9375C0.68886 6.34146 0.450403 6.24125 0.274587 6.06286C0.0987719 5.88447 0 5.64252 0 5.39024C0 5.13796 0.0987719 4.89602 0.274587 4.71763C0.450403 4.53924 0.68886 4.43902 0.9375 4.43902H8.125ZM10.625 10.4634C10.625 10.2111 10.5262 9.96919 10.3504 9.7908C10.1746 9.61241 9.93614 9.51219 9.6875 9.51219C9.43886 9.51219 9.2004 9.61241 9.02459 9.7908C8.84877 9.96919 8.75 10.2111 8.75 10.4634V19.9756C8.75 20.2279 8.84877 20.4698 9.02459 20.6482C9.2004 20.8266 9.43886 20.9268 9.6875 20.9268C9.93614 20.9268 10.1746 20.8266 10.3504 20.6482C10.5262 20.4698 10.625 20.2279 10.625 19.9756V10.4634ZM15.3125 9.51219C15.0639 9.51219 14.8254 9.61241 14.6496 9.7908C14.4738 9.96919 14.375 10.2111 14.375 10.4634V19.9756C14.375 20.2279 14.4738 20.4698 14.6496 20.6482C14.8254 20.8266 15.0639 20.9268 15.3125 20.9268C15.5611 20.9268 15.7996 20.8266 15.9754 20.6482C16.1512 20.4698 16.25 20.2279 16.25 19.9756V10.4634C16.25 10.2111 16.1512 9.96919 15.9754 9.7908C15.7996 9.61241 15.5611 9.51219 15.3125 9.51219Z" fill="#5D5D5D"/>
</svg>
