<svg width="23" height="23" viewBox="0 0 23 23" fill="none" xmlns="http://www.w3.org/2000/svg">
<path d="M2.49275 22.4348C1.80725 22.4348 1.22062 22.1909 0.73287 21.7032C0.245121 21.2154 0.000830918 20.6284 0 19.942V2.49275C0 1.80725 0.24429 1.22062 0.73287 0.73287C1.22145 0.245121 1.80808 0.000830918 2.49275 0H19.942C20.6275 0 21.2146 0.24429 21.7032 0.73287C22.1917 1.22145 22.4356 1.80808 22.4348 2.49275V19.942C22.4348 20.6275 22.1909 21.2146 21.7032 21.7032C21.2154 22.1917 20.6284 22.4356 19.942 22.4348H2.49275ZM3.73913 17.4493H18.6957L14.0217 11.2174L10.2826 16.2029L7.47826 12.4638L3.73913 17.4493Z" fill="#5D5D5D"/>
</svg>
