<svg width="108" height="108" viewBox="0 0 108 108" fill="none" xmlns="http://www.w3.org/2000/svg">
<path d="M60.125 78.5V44.8125C60.125 39.1269 62.3836 33.6742 66.4039 29.6539C70.4242 25.6336 75.8769 23.375 81.5625 23.375M60.125 78.5H103V44.8125C103 39.1269 100.741 33.6742 96.7211 29.6539C92.7008 25.6336 87.2481 23.375 81.5625 23.375M60.125 78.5V103M81.5625 23.375H41.75M41.75 23.375V5H26.4375M41.75 23.375V41.75M63.1875 78.5H5V41.75C5 36.8766 6.93593 32.2029 10.3819 28.7569C13.8279 25.3109 18.5016 23.375 23.375 23.375M35.625 78.5V103M84.625 63.1875H78.5" stroke="#5D5D5D" stroke-width="9" stroke-linecap="round" stroke-linejoin="round"/>
</svg>
