<svg width="25" height="25" viewBox="0 0 25 25" fill="none" xmlns="http://www.w3.org/2000/svg">
<path fill-rule="evenodd" clip-rule="evenodd" d="M0.422719 0.299385C0.605071 0.140977 0.830291 0.0401835 1.06991 0.00974159C1.30953 -0.0207004 1.5528 0.0205763 1.76897 0.128355L23.7586 11.1232C23.9619 11.2245 24.1329 11.3805 24.2524 11.5736C24.372 11.7667 24.4353 11.9894 24.4353 12.2165C24.4353 12.4437 24.372 12.6663 24.2524 12.8594C24.1329 13.0526 23.9619 13.2086 23.7586 13.3099L1.76897 24.3047C1.55282 24.4129 1.30944 24.4545 1.06964 24.4242C0.829829 24.394 0.604373 24.2934 0.421795 24.135C0.239218 23.9766 0.107725 23.7676 0.043956 23.5345C-0.019813 23.3014 -0.012992 23.0545 0.0635557 22.8253L3.19341 13.4382H9.77441C10.0984 13.4382 10.4091 13.3095 10.6382 13.0804C10.8673 12.8513 10.9961 12.5405 10.9961 12.2165C10.9961 11.8925 10.8673 11.5818 10.6382 11.3527C10.4091 11.1236 10.0984 10.9949 9.77441 10.9949H3.19341L0.0623338 1.60777C-0.0138195 1.3786 -0.0203452 1.132 0.0435809 0.89913C0.107507 0.666257 0.240238 0.457553 0.422719 0.299385Z" fill="#5D5D5D"/>
</svg>
