<svg width="26" height="27" viewBox="0 0 26 27" fill="none" xmlns="http://www.w3.org/2000/svg">
<path d="M24.1298 1.98084L24.7945 2.63836C25.7104 3.54552 25.5719 5.15366 24.4824 6.23022L10.7748 19.7897L6.33365 21.3967C5.77597 21.5995 5.23293 21.3365 5.12253 20.8116C5.08533 20.6212 5.1029 20.4243 5.17322 20.2432L6.82936 15.8122L20.4987 2.28954C21.5881 1.21299 23.2138 1.07369 24.1298 1.98084ZM10.1766 3.32932C10.3245 3.32932 10.471 3.35815 10.6077 3.41415C10.7444 3.47016 10.8686 3.55225 10.9732 3.65573C11.0778 3.75922 11.1608 3.88207 11.2174 4.01728C11.274 4.1525 11.3032 4.29741 11.3032 4.44376C11.3032 4.59011 11.274 4.73503 11.2174 4.87024C11.1608 5.00545 11.0778 5.12831 10.9732 5.23179C10.8686 5.33528 10.7444 5.41737 10.6077 5.47338C10.471 5.52938 10.3245 5.55821 10.1766 5.55821H5.67006C5.07247 5.55821 4.49934 5.79304 4.07678 6.21103C3.65421 6.62903 3.41682 7.19596 3.41682 7.7871V21.1604C3.41682 21.7516 3.65421 22.3185 4.07678 22.7365C4.49934 23.1545 5.07247 23.3893 5.67006 23.3893H19.1895C19.7871 23.3893 20.3603 23.1545 20.7828 22.7365C21.2054 22.3185 21.4428 21.7516 21.4428 21.1604V16.7026C21.4428 16.4071 21.5615 16.1236 21.7728 15.9146C21.984 15.7056 22.2706 15.5882 22.5694 15.5882C22.8682 15.5882 23.1548 15.7056 23.366 15.9146C23.5773 16.1236 23.696 16.4071 23.696 16.7026V21.1604C23.696 22.3427 23.2212 23.4766 22.3761 24.3125C21.531 25.1485 20.3847 25.6182 19.1895 25.6182H5.67006C4.47487 25.6182 3.32863 25.1485 2.48349 24.3125C1.63836 23.4766 1.16357 22.3427 1.16357 21.1604V7.7871C1.16357 6.60482 1.63836 5.47097 2.48349 4.63497C3.32863 3.79898 4.47487 3.32932 5.67006 3.32932H10.1766Z" fill="#5D5D5D" stroke="#5D5D5D"/>
</svg>
