<svg width="41" height="45" viewBox="0 0 41 45" fill="none" xmlns="http://www.w3.org/2000/svg">
<path d="M40.538 28.3857L36.5678 24.479C36.3768 24.291 36.2692 24.0342 36.2692 23.7662V18.6207C36.2643 14.7753 34.8106 11.0682 32.1892 8.21635C29.7738 5.58868 27.1945 3.79315 23.7628 3.22251C23.2561 3.13825 22.8654 2.71229 22.8654 2.1986V1C22.8654 0.447716 22.4177 0 21.8654 0H19.1346C18.5823 0 18.1346 0.447715 18.1346 1V2.1986C18.1346 2.71229 17.7439 3.13825 17.2372 3.22251C13.8055 3.79315 11.2262 5.58868 8.81085 8.21635C6.18939 11.0682 4.73566 14.7753 4.73077 18.6207V23.7662C4.73077 24.0342 4.62319 24.291 4.43216 24.479L0.462038 28.3857C0.166288 28.6766 8.93128e-05 29.0713 0 29.4828V34.1379C0 34.5495 0.16614 34.9442 0.46187 35.2352C0.7576 35.5262 1.1587 35.6897 1.57692 35.6897H10.9622C11.5145 35.6897 11.9622 36.1374 11.9622 36.6897V38.0172C11.9622 40.075 12.8492 41.9933 14.3278 43.4483C15.8065 44.9033 18.4089 45 20.5 45C22.5911 45 25.4646 44.9033 26.9432 43.4483C28.4219 41.9933 29.1731 40.075 29.1731 38.0172V36.6897C29.1731 36.1374 29.6208 35.6897 30.1731 35.6897H39.4231C39.8413 35.6897 40.2424 35.5262 40.5381 35.2352C40.8339 34.9442 41 34.5495 41 34.1379V29.4828C40.9999 29.0713 40.8337 28.6766 40.538 28.3857ZM25.2308 37.2414C25.2308 38.476 25.465 39.4718 24.5778 40.3448C23.6906 41.2178 21.8902 41.254 20.6355 41.254C19.3808 41.254 17.5804 41.2178 16.6932 40.3448C15.806 39.4718 15.7692 38.476 15.7692 37.2414L15.825 36.6027C15.8701 36.0861 16.3027 35.6897 16.8212 35.6897H24.2308C24.7831 35.6897 25.2308 36.1374 25.2308 36.6897V37.2414Z" fill="#FAFAFA"/>
</svg>
