<svg width="18" height="19" viewBox="0 0 18 19" fill="none" xmlns="http://www.w3.org/2000/svg">
<path d="M14.8014 1H2.80145C1.69644 1 0.775445 1.91 1.04845 2.98C1.3392 4.11384 1.87462 5.17029 2.61712 6.07518C3.35962 6.98007 4.2912 7.71146 5.34645 8.218C6.16945 8.612 6.80145 9.386 6.80145 10.298V16.382C6.80154 16.5524 6.84516 16.7199 6.92819 16.8687C7.01121 17.0175 7.13088 17.1426 7.27584 17.2322C7.4208 17.3218 7.58623 17.3728 7.75645 17.3805C7.92667 17.3881 8.09602 17.3522 8.24844 17.276L10.2484 16.276C10.4145 16.193 10.5542 16.0654 10.6519 15.9075C10.7496 15.7496 10.8013 15.5677 10.8014 15.382V10.298C10.8014 9.386 11.4334 8.612 12.2554 8.218C13.3111 7.71169 14.243 6.9804 14.9859 6.0755C15.7287 5.1706 16.2645 4.11403 16.5554 2.98C16.8264 1.91 15.9044 1 14.8014 1Z" stroke="#F75959" stroke-width="2"/>
</svg>
