<svg width="101" height="101" viewBox="0 0 101 101" fill="none" xmlns="http://www.w3.org/2000/svg">
<path fill-rule="evenodd" clip-rule="evenodd" d="M14.446 43.3237C14.446 35.6636 17.4888 28.3173 22.905 22.9007C28.3212 17.4842 35.6672 14.4412 43.3269 14.4412C50.9866 14.4412 58.3326 17.4842 63.7488 22.9007C69.165 28.3173 72.2078 35.6636 72.2078 43.3237C72.2078 50.9839 69.165 58.3302 63.7488 63.7467C58.3326 69.1633 50.9866 72.2062 43.3269 72.2062C35.6672 72.2062 28.3212 69.1633 22.905 63.7467C17.4888 58.3302 14.446 50.9839 14.446 43.3237ZM43.3269 8.19263e-07C36.5089 -0.000869289 29.7869 1.60762 23.7077 4.69464C17.6285 7.78167 12.3637 12.2601 8.34147 17.7656C4.31928 23.2711 1.65328 29.6483 0.560285 36.3786C-0.532707 43.1088 -0.0218231 50.002 2.05139 56.4975C4.1246 62.993 7.70159 68.9075 12.4914 73.7599C17.2813 78.6122 23.1488 82.2655 29.6166 84.4225C36.0845 86.5795 42.9702 87.1793 49.7136 86.1733C56.457 85.1672 62.8677 82.5836 68.4244 78.6326L88.7638 98.9731C90.1256 100.288 91.9494 101.016 93.8425 101C95.7356 100.983 97.5466 100.224 98.8853 98.8851C100.224 97.5464 100.983 95.7353 101 93.8421C101.016 91.9489 100.288 90.125 98.9732 88.7631L78.641 68.4299C83.2496 61.9483 85.9852 54.3233 86.548 46.3902C87.1109 38.4571 85.4794 30.5221 81.8322 23.4548C78.185 16.3874 72.6629 10.4604 65.871 6.32327C59.0791 2.18612 51.2795 -0.00154558 43.3269 8.19263e-07Z" fill="#5D5D5D"/>
<path d="M66 39.0269C66 40.1218 65.6774 41.1922 65.0731 42.1026C64.4687 43.0131 63.6098 43.7226 62.6048 44.1417C61.5998 44.5607 60.4939 44.6703 59.427 44.4567C58.3601 44.2431 57.3801 43.7158 56.6109 42.9416C55.8417 42.1673 55.3179 41.1809 55.1057 40.1069C54.8935 39.033 55.0024 37.9199 55.4187 36.9083C55.8349 35.8966 56.5399 35.032 57.4444 34.4237C58.3488 33.8154 59.4122 33.4907 60.5 33.4907C61.9587 33.4907 63.3576 34.0739 64.3891 35.1122C65.4205 36.1504 66 37.5586 66 39.0269ZM33 39.0269C33 37.9319 32.6774 36.8615 32.0731 35.9511C31.4687 35.0407 30.6098 34.3311 29.6048 33.9121C28.5998 33.4931 27.4939 33.3834 26.427 33.597C25.3601 33.8107 24.3801 34.3379 23.6109 35.1122C22.8417 35.8864 22.3179 36.8729 22.1057 37.9468C21.8935 39.0207 22.0024 40.1339 22.4187 41.1455C22.8349 42.1571 23.5399 43.0217 24.4444 43.6301C25.3488 44.2384 26.4122 44.5631 27.5 44.5631C28.9587 44.5631 30.3576 43.9798 31.3891 42.9416C32.4205 41.9033 33 40.4952 33 39.0269ZM36.9286 35.0724C38.0164 35.0724 39.0797 34.7477 39.9842 34.1394C40.8887 33.5311 41.5936 32.6664 42.0099 31.6548C42.4262 30.6432 42.5351 29.5301 42.3229 28.4562C42.1107 27.3822 41.5868 26.3958 40.8177 25.6215C40.0485 24.8473 39.0685 24.32 38.0016 24.1064C36.9347 23.8928 35.8288 24.0024 34.8238 24.4214C33.8188 24.8404 32.9598 25.55 32.3555 26.4605C31.7511 27.3709 31.4286 28.4413 31.4286 29.5362C31.4286 31.0045 32.008 32.4127 33.0395 33.4509C34.0709 34.4892 35.4699 35.0724 36.9286 35.0724ZM51.0714 35.0724C52.1592 35.0724 53.2226 34.7477 54.1271 34.1394C55.0315 33.5311 55.7365 32.6664 56.1528 31.6548C56.569 30.6432 56.678 29.5301 56.4657 28.4562C56.2535 27.3822 55.7297 26.3958 54.9605 25.6215C54.1913 24.8473 53.2113 24.32 52.1444 24.1064C51.0775 23.8928 49.9717 24.0024 48.9667 24.4214C47.9617 24.8404 47.1027 25.55 46.4983 26.4605C45.894 27.3709 45.5714 28.4413 45.5714 29.5362C45.5714 31.0045 46.1509 32.4127 47.1823 33.4509C48.2138 34.4892 49.6127 35.0724 51.0714 35.0724ZM55.6129 47.1058C54.8147 46.6625 54.1111 46.0652 53.5425 45.348C52.9739 44.6308 52.5514 43.8077 52.2991 42.926C51.7766 41.1173 50.6851 39.5282 49.1885 38.3974C47.692 37.2666 45.8713 36.6553 44 36.6553C42.1287 36.6553 40.308 37.2666 38.8115 38.3974C37.3149 39.5282 36.2234 41.1173 35.7009 42.926C35.1962 44.7002 34.0129 46.2006 32.4107 47.0979C30.8737 47.935 29.6578 49.2641 28.9554 50.8749C28.253 52.4856 28.1041 54.2861 28.5323 55.9916C28.9605 57.6971 29.9413 59.2102 31.3197 60.2916C32.6981 61.373 34.3953 61.961 36.1429 61.9626C37.1901 61.9655 38.2271 61.755 39.1914 61.3438C42.2657 60.0678 45.7166 60.0678 48.7909 61.3438C50.6529 62.1589 52.7562 62.2168 54.6597 61.5053C56.5633 60.7938 58.1192 59.3681 59.0014 57.5272C59.8836 55.6863 60.0235 53.573 59.3918 51.6306C58.7601 49.6881 57.4058 48.0672 55.6129 47.1078V47.1058Z" fill="#5D5D5D"/>
</svg>
