<svg width="36" height="36" viewBox="0 0 36 36" fill="none" xmlns="http://www.w3.org/2000/svg">
<path d="M15.75 30C15.75 30.5967 15.9871 31.169 16.409 31.591C16.831 32.0129 17.4033 32.25 18 32.25C18.5967 32.25 19.169 32.0129 19.591 31.591C20.0129 31.169 20.25 30.5967 20.25 30V20.25H30C30.5967 20.25 31.169 20.0129 31.591 19.591C32.0129 19.169 32.25 18.5967 32.25 18C32.25 17.4033 32.0129 16.831 31.591 16.409C31.169 15.9871 30.5967 15.75 30 15.75H20.25V6C20.25 5.40326 20.0129 4.83097 19.591 4.40901C19.169 3.98705 18.5967 3.75 18 3.75C17.4033 3.75 16.831 3.98705 16.409 4.40901C15.9871 4.83097 15.75 5.40326 15.75 6V15.75H6C5.40326 15.75 4.83097 15.9871 4.40901 16.409C3.98705 16.831 3.75 17.4033 3.75 18C3.75 18.5967 3.98705 19.169 4.40901 19.591C4.83097 20.0129 5.40326 20.25 6 20.25H15.75V30Z" fill="#F75959"/>
</svg>
